<svg width="132" height="30" viewBox="0 0 132 30" fill="none" xmlns="http://www.w3.org/2000/svg">
<path d="M39.904 25V5.4H43.488L52.7 19.204V5.4H56.284V25H52.7L43.488 11.224V25H39.904Z" fill="#102D47"/>
<path d="M61.6517 8.956C60.9984 8.956 60.457 8.76 60.0277 8.368C59.617 7.976 59.4117 7.48133 59.4117 6.884C59.4117 6.28667 59.617 5.80133 60.0277 5.428C60.457 5.036 60.9984 4.84 61.6517 4.84C62.305 4.84 62.837 5.036 63.2477 5.428C63.677 5.80133 63.8917 6.28667 63.8917 6.884C63.8917 7.48133 63.677 7.976 63.2477 8.368C62.837 8.76 62.305 8.956 61.6517 8.956ZM59.8597 25V11.112H63.4437V25H59.8597Z" fill="#102D47"/>
<path d="M73.7085 25.336C72.2899 25.336 71.0392 25.028 69.9565 24.412C68.8739 23.796 68.0152 22.9373 67.3805 21.836C66.7645 20.7347 66.4565 19.4747 66.4565 18.056C66.4565 16.6373 66.7645 15.3773 67.3805 14.276C68.0152 13.1747 68.8739 12.316 69.9565 11.7C71.0392 11.084 72.2899 10.776 73.7085 10.776C75.4819 10.776 76.9752 11.2427 78.1885 12.176C79.4019 13.0907 80.1765 14.36 80.5125 15.984H76.7325C76.5459 15.312 76.1725 14.7893 75.6125 14.416C75.0712 14.024 74.4272 13.828 73.6805 13.828C72.6912 13.828 71.8512 14.2013 71.1605 14.948C70.4699 15.6947 70.1245 16.7307 70.1245 18.056C70.1245 19.3813 70.4699 20.4173 71.1605 21.164C71.8512 21.9107 72.6912 22.284 73.6805 22.284C74.4272 22.284 75.0712 22.0973 75.6125 21.724C76.1725 21.3507 76.5459 20.8187 76.7325 20.128H80.5125C80.1765 21.696 79.4019 22.956 78.1885 23.908C76.9752 24.86 75.4819 25.336 73.7085 25.336Z" fill="#102D47"/>
<path d="M83.4136 25V4.84H86.9976V16.74L91.9256 11.112H96.1816L90.4976 17.44L97.1056 25H92.6256L86.9976 18.028V25H83.4136Z" fill="#102D47"/>
<path d="M105.236 25C103.78 25 102.613 24.6453 101.736 23.936C100.858 23.2267 100.42 21.9667 100.42 20.156V14.108H98.0397V11.112H100.42L100.84 7.388H104.004V11.112H107.756V14.108H104.004V20.184C104.004 20.856 104.144 21.3227 104.424 21.584C104.722 21.8267 105.226 21.948 105.936 21.948H107.672V25H105.236Z" fill="#102D47"/>
<path d="M112.485 8.956C111.831 8.956 111.29 8.76 110.861 8.368C110.45 7.976 110.245 7.48133 110.245 6.884C110.245 6.28667 110.45 5.80133 110.861 5.428C111.29 5.036 111.831 4.84 112.485 4.84C113.138 4.84 113.67 5.036 114.081 5.428C114.51 5.80133 114.725 6.28667 114.725 6.884C114.725 7.48133 114.51 7.976 114.081 8.368C113.67 8.76 113.138 8.956 112.485 8.956ZM110.693 25V11.112H114.277V25H110.693Z" fill="#102D47"/>
<path d="M124.402 25.336C123.058 25.336 121.844 25.028 120.762 24.412C119.698 23.796 118.848 22.9467 118.214 21.864C117.598 20.7627 117.29 19.4933 117.29 18.056C117.29 16.6187 117.607 15.3587 118.242 14.276C118.876 13.1747 119.726 12.316 120.79 11.7C121.872 11.084 123.086 10.776 124.43 10.776C125.755 10.776 126.95 11.084 128.014 11.7C129.096 12.316 129.946 13.1747 130.562 14.276C131.196 15.3587 131.514 16.6187 131.514 18.056C131.514 19.4933 131.196 20.7627 130.562 21.864C129.946 22.9467 129.096 23.796 128.014 24.412C126.931 25.028 125.727 25.336 124.402 25.336ZM124.402 22.228C125.335 22.228 126.147 21.8827 126.838 21.192C127.528 20.4827 127.874 19.4373 127.874 18.056C127.874 16.6747 127.528 15.6387 126.838 14.948C126.147 14.2387 125.344 13.884 124.43 13.884C123.478 13.884 122.656 14.2387 121.966 14.948C121.294 15.6387 120.958 16.6747 120.958 18.056C120.958 19.4373 121.294 20.4827 121.966 21.192C122.656 21.8827 123.468 22.228 124.402 22.228Z" fill="#102D47"/>
<path d="M28 4.74873C28 7.37139 25.8574 9.49747 23.2145 9.49747C20.5715 9.49747 18.4289 7.37139 18.4289 4.74873C18.4289 2.12608 20.5715 0 23.2145 0C25.8574 0 28 2.12608 28 4.74873Z" fill="#46C4FF"/>
<path d="M9.57212 24.736C9.57212 27.3586 7.42956 29.4847 4.78658 29.4847C2.1436 29.4847 0.00103384 27.3586 0.00103384 24.736C0.00103384 22.1133 2.1436 19.9872 4.78658 19.9872C7.42956 19.9872 9.57212 22.1133 9.57212 24.736Z" fill="#2F73F2"/>
<path d="M25.2144 17.2939L1.92951 0.0708811C-2.12749 5.91111 1.14383 10.9623 3.28661 12.7578L26.1429 29.5556C29.8 23.9988 27.0477 19.0658 25.2144 17.2939Z" fill="#35B4F6"/>
</svg>
