<svg width="132" height="30" viewBox="0 0 132 30" fill="none" xmlns="http://www.w3.org/2000/svg">
  <path d="M39.904 25V5.4h3.584L52.7 19.204V5.4h3.584V25H52.7l-9.212-13.776V25zM61.652 8.956q-.98 0-1.624-.588-.616-.588-.616-1.484t.616-1.456q.643-.588 1.624-.588.98 0 1.596.588.644.56.644 1.456t-.644 1.484q-.617.588-1.596.588M59.86 25V11.112h3.584V25zm13.849.336q-2.13 0-3.752-.924a6.83 6.83 0 0 1-2.576-2.576q-.925-1.651-.924-3.78 0-2.129.924-3.78a6.83 6.83 0 0 1 2.576-2.576q1.623-.924 3.752-.924 2.66 0 4.48 1.4 1.82 1.372 2.324 3.808h-3.78a2.68 2.68 0 0 0-1.12-1.568q-.813-.588-1.933-.588-1.483 0-2.52 1.12-1.035 1.12-1.035 3.108t1.035 3.108 2.52 1.12q1.12 0 1.932-.56.84-.56 1.12-1.596h3.78q-.503 2.352-2.323 3.78t-4.48 1.428M83.414 25V4.84h3.584v11.9l4.928-5.628h4.256l-5.684 6.328L97.106 25h-4.48l-5.628-6.972V25zm21.822 0q-2.184 0-3.5-1.064-1.317-1.065-1.316-3.78v-6.048h-2.38v-2.996h2.38l.42-3.724h3.164v3.724h3.752v2.996h-3.752v6.076q0 1.008.42 1.4.447.364 1.512.364h1.736V25zm7.249-16.044q-.98 0-1.624-.588-.616-.588-.616-1.484t.616-1.456q.643-.588 1.624-.588.98 0 1.596.588.644.56.644 1.456t-.644 1.484q-.617.588-1.596.588M110.693 25V11.112h3.584V25zm13.709.336q-2.016 0-3.64-.924a6.95 6.95 0 0 1-2.548-2.548q-.924-1.651-.924-3.808 0-2.155.952-3.78a6.9 6.9 0 0 1 2.548-2.576q1.623-.924 3.64-.924 1.988 0 3.584.924a6.63 6.63 0 0 1 2.548 2.576q.951 1.624.952 3.78 0 2.156-.952 3.808a6.7 6.7 0 0 1-2.548 2.548q-1.625.924-3.612.924m0-3.108q1.4 0 2.436-1.036 1.035-1.065 1.036-3.136 0-2.072-1.036-3.108-1.037-1.065-2.408-1.064-1.428 0-2.464 1.064-1.008 1.036-1.008 3.108t1.008 3.136q1.035 1.035 2.436 1.036" fill="#FFFFFF"/>
  <path d="M28 4.749c0 2.622-2.143 4.748-4.785 4.748s-4.786-2.126-4.786-4.748S20.572 0 23.215 0 28 2.126 28 4.749" fill="#46C4FF"/>
  <path d="M9.572 24.736c0 2.623-2.142 4.749-4.785 4.749S0 27.359 0 24.736s2.143-4.749 4.786-4.749 4.785 2.126 4.785 4.749" fill="#2F73F2"/>
  <path d="M25.214 17.294 1.93.07c-4.057 5.84-.786 10.891 1.357 12.687l22.856 16.798c3.657-5.557.905-10.49-.929-12.262" fill="#35B4F6"/>
</svg>
