<?xml version="1.0" encoding="UTF-8"?>
<svg xmlns="http://www.w3.org/2000/svg" version="1.1" viewBox="0 0 618.92 888">
  <!-- Generator: Adobe Illustrator 29.3.1, SVG Export Plug-In . SVG Version: 2.1.0 Build 151)  -->
  <defs>
    <style>
      .st0 {
        stroke: #6fad41;
      }

      .st0, .st1, .st2, .st3 {
        fill: none;
      }

      .st0, .st1, .st3 {
        stroke-width: 2px;
      }

      .st1 {
        stroke: #cfd939;
      }

      .st4 {
        fill: #f5f7db;
      }

      .st5 {
        fill: #f4e6d6;
      }

      .st6, .st7, .st8 {
        fill: #cb6051;
      }

      .st6, .st9 {
        fill-rule: evenodd;
      }

      .st10, .st11 {
        isolation: isolate;
      }

      .st12 {
        fill: #d8d8d8;
      }

      .st11 {
        fill: #d6d7db;
        mix-blend-mode: multiply;
      }

      .st13, .st9 {
        fill: #6fad41;
      }

      .st14 {
        fill: #fff;
      }

      .st15 {
        fill: #616e72;
      }

      .st2 {
        stroke: #d4d8da;
      }

      .st16 {
        fill: #dcecd5;
      }

      .st3 {
        stroke: #e08228;
      }

      .st8 {
        stroke: #fff;
      }
    </style>
  </defs>
  <g class="st10">
    <g id="Layer_1">
      <g>
        <g>
          <rect class="st14" x="23.51" y="78.46" width="289.1" height="255.98" rx="9.5" ry="9.5"/>
          <rect class="st2" x="23.51" y="78.46" width="289.1" height="255.98" rx="9.5" ry="9.5"/>
          <path d="M49.44,110.08v-7.71l-3.02,7.71h-1l-3.02-7.71v7.71h-2.28v-10.71h3.2l2.6,6.68,2.6-6.68h3.21v10.71h-2.3ZM58.48,110.08v-.8c-.53.63-1.45,1-2.46,1-1.24,0-2.7-.84-2.7-2.57s1.46-2.47,2.7-2.47c1.03,0,1.94.32,2.46.95v-1.08c0-.79-.67-1.3-1.7-1.3-.84,0-1.61.31-2.26.92l-.77-1.37c.95-.84,2.17-1.22,3.39-1.22,1.77,0,3.39.71,3.39,2.94v5.01h-2.04ZM58.48,108.22v-.96c-.34-.45-.98-.67-1.64-.67-.8,0-1.46.43-1.46,1.17s.66,1.14,1.46,1.14c.66,0,1.3-.22,1.64-.67ZM62.54,110.08v-7.76h2.04v1.06c.55-.69,1.51-1.24,2.47-1.24v1.99c-.14-.03-.34-.05-.56-.05-.67,0-1.57.37-1.91.87v5.12h-2.04ZM68.17,112.08l.92-1.48c.63.69,1.45.96,2.43.96s2.14-.43,2.14-1.96v-.79c-.61.77-1.45,1.22-2.39,1.22-1.94,0-3.42-1.37-3.42-3.95s1.46-3.95,3.42-3.95c.93,0,1.77.4,2.39,1.19v-1h2.06v7.23c0,2.96-2.28,3.68-4.19,3.68-1.33,0-2.38-.31-3.34-1.16ZM73.65,107.34v-2.51c-.34-.51-1.08-.88-1.75-.88-1.16,0-1.96.8-1.96,2.14s.8,2.14,1.96,2.14c.67,0,1.41-.39,1.75-.88ZM78.74,101.19c-.66,0-1.22-.55-1.22-1.22s.56-1.22,1.22-1.22,1.22.55,1.22,1.22-.55,1.22-1.22,1.22ZM77.72,110.08v-7.76h2.04v7.76h-2.04ZM87.02,110.08v-4.69c0-1.08-.56-1.45-1.43-1.45-.8,0-1.43.45-1.77.92v5.22h-2.04v-7.76h2.04v1.01c.5-.59,1.45-1.2,2.71-1.2,1.7,0,2.52.96,2.52,2.47v5.48h-2.04Z"/>
          <path class="st15" d="M47.53,129.16v-7.24l-2.96,7.24h-.44l-2.95-7.24v7.24h-1.08v-8.7h1.55l2.7,6.63,2.71-6.63h1.55v8.7h-1.08ZM54.54,129.16v-.72c-.52.57-1.24.87-2.09.87-1.07,0-2.21-.72-2.21-2.09s1.14-2.07,2.21-2.07c.86,0,1.58.27,2.09.86v-1.14c0-.85-.68-1.33-1.59-1.33-.76,0-1.37.27-1.93.87l-.46-.68c.68-.7,1.49-1.04,2.52-1.04,1.33,0,2.44.6,2.44,2.13v4.33h-.98ZM54.54,127.83v-1.19c-.38-.52-1.04-.78-1.74-.78-.91,0-1.55.57-1.55,1.38s.64,1.37,1.55,1.37c.69,0,1.36-.26,1.74-.78ZM57.48,129.16v-6.3h.98v1.02c.51-.67,1.24-1.15,2.1-1.15v1c-.12-.03-.23-.04-.39-.04-.6,0-1.42.5-1.71,1v4.46h-.98ZM61.78,130.77l.5-.73c.52.63,1.15.86,2.05.86,1.04,0,2.02-.51,2.02-1.89v-.9c-.46.64-1.23,1.12-2.11,1.12-1.64,0-2.81-1.23-2.81-3.26s1.15-3.28,2.81-3.28c.85,0,1.61.42,2.11,1.11v-.95h.98v6.12c0,2.09-1.46,2.74-3,2.74-1.07,0-1.8-.21-2.54-.94ZM66.34,127.34v-2.75c-.34-.55-1.1-1.02-1.88-1.02-1.27,0-2.02,1-2.02,2.4s.76,2.4,2.02,2.4c.78,0,1.54-.48,1.88-1.03ZM69.77,121.8c-.35,0-.65-.3-.65-.67s.3-.65.65-.65.67.29.67.65-.3.67-.67.67ZM69.28,129.16v-6.3h.98v6.3h-.98ZM76.47,129.16v-4.12c0-1.11-.56-1.46-1.41-1.46-.77,0-1.5.47-1.87.98v4.61h-.98v-6.3h.98v.91c.44-.52,1.3-1.07,2.24-1.07,1.32,0,2.01.67,2.01,2.04v4.42h-.98ZM86.71,129.16v-.72c-.52.57-1.24.87-2.09.87-1.07,0-2.21-.72-2.21-2.09s1.14-2.07,2.21-2.07c.86,0,1.58.27,2.09.86v-1.14c0-.85-.68-1.33-1.59-1.33-.76,0-1.37.27-1.93.87l-.46-.68c.68-.7,1.49-1.04,2.52-1.04,1.33,0,2.44.6,2.44,2.13v4.33h-.98ZM86.71,127.83v-1.19c-.38-.52-1.04-.78-1.74-.78-.91,0-1.55.57-1.55,1.38s.64,1.37,1.55,1.37c.69,0,1.36-.26,1.74-.78ZM89.92,129.16v-5.44h-1.04v-.86h1.04v-.48c0-1.3.73-2.05,1.83-2.05.37,0,.7.07.95.22l-.25.73c-.16-.09-.34-.14-.56-.14-.64,0-.99.44-.99,1.24v.48h1.28v.86h-1.28v5.44h-.98ZM94.94,129.31c-.93,0-1.4-.54-1.4-1.47v-4.12h-1.04v-.86h1.04v-1.72h.98v1.72h1.28v.86h-1.28v3.91c0,.47.21.81.64.81.27,0,.54-.12.67-.26l.29.73c-.25.23-.6.4-1.17.4ZM96.81,126c0-1.83,1.3-3.3,3.11-3.3,1.91,0,3.03,1.49,3.03,3.38v.25h-5.1c.08,1.19.91,2.18,2.27,2.18.72,0,1.45-.29,1.94-.8l.47.64c-.63.63-1.47.97-2.51.97-1.87,0-3.21-1.34-3.21-3.31ZM99.91,123.51c-1.34,0-2.01,1.14-2.06,2.1h4.14c-.01-.94-.64-2.1-2.07-2.1ZM104.53,129.16v-6.3h.98v1.02c.51-.67,1.24-1.15,2.1-1.15v1c-.12-.03-.23-.04-.39-.04-.6,0-1.42.5-1.71,1v4.46h-.98ZM112.2,129.16v-6.3h.98v1.02c.51-.67,1.24-1.15,2.1-1.15v1c-.12-.03-.23-.04-.39-.04-.6,0-1.42.5-1.71,1v4.46h-.98ZM116.15,126c0-1.83,1.3-3.3,3.11-3.3,1.91,0,3.03,1.49,3.03,3.38v.25h-5.1c.08,1.19.91,2.18,2.27,2.18.72,0,1.45-.29,1.94-.8l.47.64c-.63.63-1.47.97-2.51.97-1.87,0-3.21-1.34-3.21-3.31ZM119.24,123.51c-1.34,0-2.01,1.14-2.06,2.1h4.14c-.01-.94-.64-2.1-2.07-2.1ZM123.86,129.16v-8.7h.98v3.35c.51-.69,1.27-1.11,2.13-1.11,1.64,0,2.81,1.3,2.81,3.31s-1.16,3.3-2.81,3.3c-.89,0-1.66-.46-2.13-1.1v.94h-.98ZM124.84,127.45c.34.55,1.11.99,1.88.99,1.28,0,2.04-1.03,2.04-2.43s-.76-2.44-2.04-2.44c-.77,0-1.54.47-1.88,1.02v2.86ZM135.31,129.16v-.72c-.52.57-1.24.87-2.09.87-1.07,0-2.21-.72-2.21-2.09s1.14-2.07,2.21-2.07c.86,0,1.58.27,2.09.86v-1.14c0-.85-.68-1.33-1.59-1.33-.76,0-1.37.27-1.93.87l-.46-.68c.68-.7,1.49-1.04,2.52-1.04,1.33,0,2.44.6,2.44,2.13v4.33h-.98ZM135.31,127.83v-1.19c-.38-.52-1.04-.78-1.74-.78-.91,0-1.55.57-1.55,1.38s.64,1.37,1.55,1.37c.69,0,1.36-.26,1.74-.78ZM139.84,129.31c-.93,0-1.4-.54-1.4-1.47v-4.12h-1.04v-.86h1.04v-1.72h.98v1.72h1.28v.86h-1.28v3.91c0,.47.21.81.64.81.27,0,.54-.12.67-.26l.29.73c-.25.23-.6.4-1.17.4ZM141.72,126c0-1.83,1.3-3.3,3.11-3.3,1.91,0,3.03,1.49,3.03,3.38v.25h-5.1c.08,1.19.91,2.18,2.27,2.18.72,0,1.45-.29,1.94-.8l.47.64c-.63.63-1.47.97-2.51.97-1.87,0-3.21-1.34-3.21-3.31ZM144.82,123.51c-1.34,0-2.01,1.14-2.06,2.1h4.14c-.01-.94-.64-2.1-2.07-2.1ZM156.75,129.16v-.72c-.52.57-1.24.87-2.09.87-1.07,0-2.21-.72-2.21-2.09s1.14-2.07,2.21-2.07c.86,0,1.58.27,2.09.86v-1.14c0-.85-.68-1.33-1.59-1.33-.76,0-1.37.27-1.93.87l-.46-.68c.68-.7,1.49-1.04,2.52-1.04,1.33,0,2.44.6,2.44,2.13v4.33h-.98ZM156.75,127.83v-1.19c-.38-.52-1.04-.78-1.74-.78-.91,0-1.55.57-1.55,1.38s.64,1.37,1.55,1.37c.69,0,1.36-.26,1.74-.78ZM159.14,128.32l.51-.7c.42.48,1.21.9,2.07.9.97,0,1.49-.43,1.49-1.04,0-.69-.77-.91-1.62-1.12-1.07-.25-2.28-.54-2.28-1.84,0-.98.85-1.81,2.35-1.81,1.07,0,1.83.4,2.34.91l-.46.68c-.38-.46-1.07-.8-1.88-.8-.86,0-1.4.39-1.4.95,0,.61.72.81,1.54,1,1.1.25,2.36.56,2.36,1.96,0,1.06-.85,1.91-2.48,1.91-1.03,0-1.91-.31-2.54-.99ZM173.06,129.16v-.72c-.52.57-1.24.87-2.09.87-1.07,0-2.21-.72-2.21-2.09s1.14-2.07,2.21-2.07c.86,0,1.58.27,2.09.86v-1.14c0-.85-.68-1.33-1.59-1.33-.76,0-1.37.27-1.93.87l-.46-.68c.68-.7,1.49-1.04,2.52-1.04,1.33,0,2.44.6,2.44,2.13v4.33h-.98ZM173.06,127.83v-1.19c-.38-.52-1.04-.78-1.74-.78-.91,0-1.55.57-1.55,1.38s.64,1.37,1.55,1.37c.69,0,1.36-.26,1.74-.78ZM178.79,122.49c0-1.23.85-2.17,2.09-2.17s2.11.94,2.11,2.17-.86,2.13-2.11,2.13-2.09-.91-2.09-2.13ZM180.06,129.16l5.56-8.7h.72l-5.57,8.7h-.7ZM182.21,122.49c0-.86-.55-1.5-1.33-1.5s-1.3.64-1.3,1.5.54,1.47,1.3,1.47,1.33-.65,1.33-1.47ZM183.33,127.19c0-1.23.85-2.17,2.09-2.17s2.1.94,2.1,2.17-.86,2.13-2.1,2.13-2.09-.91-2.09-2.13ZM186.75,127.19c0-.86-.55-1.5-1.33-1.5s-1.32.64-1.32,1.5.54,1.47,1.32,1.47,1.33-.65,1.33-1.47Z"/>
          <path d="M45.24,174.33v-16.54l-3.5,3.63-2.18-2.28,6.17-6.23h3.28v21.43h-3.76ZM52.62,168.84c0-2.73,2.22-4.69,4.82-5.56-2.41-.77-4.47-2.34-4.47-5.08,0-3.95,4.05-5.62,7.87-5.62s7.87,1.67,7.87,5.62c0,2.73-2.09,4.3-4.5,5.08,2.6.87,4.82,2.83,4.82,5.56,0,3.82-3.82,5.88-8.19,5.88s-8.22-2.02-8.22-5.88ZM64.89,158.78c0-1.8-1.77-2.86-4.05-2.86s-4.08,1.06-4.08,2.86c0,2.02,2.76,2.79,4.08,3.02,1.32-.22,4.05-1,4.05-3.02ZM65.25,168.35c0-2.22-3.08-3.21-4.4-3.37-1.35.16-4.43,1.16-4.43,3.37,0,1.86,1.99,3.02,4.43,3.02s4.4-1.16,4.4-3.02ZM72.05,172.43c0-1.22,1.03-2.25,2.25-2.25s2.25,1.03,2.25,2.25-1.03,2.25-2.25,2.25-2.25-1.03-2.25-2.25ZM80.05,171.41l2.15-2.57c1.45,1.64,3.37,2.54,5.78,2.54,2.7,0,4.4-1.67,4.4-3.76,0-2.31-1.67-3.82-4.3-3.82-1.83,0-3.34.58-4.69,1.86l-2.67-.77v-11.98h14.04v3.31h-10.28v6.2c1.03-1.03,2.79-1.86,4.85-1.86,3.6,0,6.84,2.54,6.84,6.91s-3.37,7.26-8.16,7.26c-3.69,0-6.23-1.25-7.97-3.31ZM98.41,157.95c0-3.02,2.12-5.36,5.3-5.36s5.36,2.34,5.36,5.36-2.15,5.27-5.36,5.27-5.3-2.28-5.3-5.27ZM101.65,174.33l13.68-21.43h2.15l-13.72,21.43h-2.12ZM106.57,157.95c0-1.93-1.19-3.21-2.86-3.21s-2.83,1.28-2.83,3.21,1.19,3.15,2.83,3.15,2.86-1.32,2.86-3.15ZM109.94,169.45c0-3.02,2.12-5.36,5.3-5.36s5.33,2.34,5.33,5.36-2.15,5.27-5.33,5.27-5.3-2.28-5.3-5.27ZM118.1,169.45c0-1.93-1.19-3.21-2.86-3.21s-2.83,1.28-2.83,3.21,1.16,3.15,2.83,3.15,2.86-1.28,2.86-3.15Z"/>
          <path class="st13" d="M59.8,220.18c0-2.7,1.28-5.53,4.29-5.53s4.29,2.83,4.29,5.53-1.28,5.54-4.29,5.54-4.29-2.84-4.29-5.54ZM66.47,220.18c0-2.04-.63-3.85-2.38-3.85s-2.38,1.81-2.38,3.85.63,3.87,2.38,3.87,2.38-1.83,2.38-3.87ZM69.47,224.58c0-.61.51-1.12,1.12-1.12s1.12.51,1.12,1.12-.51,1.12-1.12,1.12-1.12-.51-1.12-1.12ZM73.23,220.19c0-3.1,1.62-5.54,4.72-5.54,1.33,0,2.36.48,3.08,1.19l-.88,1.43c-.56-.59-1.17-.95-2.2-.95-1.78,0-2.83,1.65-2.83,3.53,0,.11,0,.21.02.31.48-.72,1.61-1.49,2.87-1.49,1.93,0,3.58,1.17,3.58,3.45,0,1.99-1.56,3.6-3.95,3.6-3.15,0-4.42-2.55-4.42-5.53ZM79.7,222.18c0-1.32-1.03-1.91-2.2-1.91-.92,0-1.8.5-2.34,1.27.11,1.16.74,2.51,2.39,2.51,1.41,0,2.15-1,2.15-1.86ZM85.3,225.52v-8.27l-1.75,1.81-1.09-1.14,3.08-3.12h1.64v10.71h-1.88ZM88.77,217.33c0-1.51,1.06-2.68,2.65-2.68s2.68,1.17,2.68,2.68-1.08,2.63-2.68,2.63-2.65-1.14-2.65-2.63ZM90.39,225.52l6.84-10.71h1.08l-6.86,10.71h-1.06ZM92.85,217.33c0-.96-.59-1.61-1.43-1.61s-1.41.64-1.41,1.61.59,1.57,1.41,1.57,1.43-.66,1.43-1.57ZM94.54,223.08c0-1.51,1.06-2.68,2.65-2.68s2.67,1.17,2.67,2.68-1.08,2.63-2.67,2.63-2.65-1.14-2.65-2.63ZM98.62,223.08c0-.96-.59-1.61-1.43-1.61s-1.41.64-1.41,1.61.58,1.57,1.41,1.57,1.43-.64,1.43-1.57Z"/>
          <path class="st15" d="M107.54,228.72c-1.51-1.85-2.43-4.51-2.43-7.1s.92-5.24,2.43-7.1l1.04.79c-1.06,1.99-1.64,3.79-1.64,6.31s.58,4.32,1.64,6.3l-1.04.8ZM111.97,225.52v-8.27l-1.75,1.81-1.09-1.14,3.08-3.12h1.64v10.71h-1.88ZM115.66,222.78c0-1.37,1.11-2.34,2.41-2.78-1.2-.39-2.23-1.17-2.23-2.54,0-1.98,2.02-2.81,3.94-2.81s3.93.84,3.93,2.81c0,1.37-1.04,2.15-2.25,2.54,1.3.43,2.41,1.41,2.41,2.78,0,1.91-1.91,2.94-4.1,2.94s-4.11-1.01-4.11-2.94ZM121.79,217.75c0-.9-.88-1.43-2.02-1.43s-2.04.53-2.04,1.43c0,1.01,1.38,1.4,2.04,1.51.66-.11,2.02-.5,2.02-1.51ZM121.97,222.54c0-1.11-1.54-1.61-2.2-1.69-.67.08-2.22.58-2.22,1.69,0,.93,1,1.51,2.22,1.51s2.2-.58,2.2-1.51ZM125.37,224.58c0-.61.51-1.12,1.12-1.12s1.12.51,1.12,1.12-.51,1.12-1.12,1.12-1.12-.51-1.12-1.12ZM134.03,225.52v-2.43h-5.11v-1.51l4.4-6.78h2.59v6.63h1.43v1.65h-1.43v2.43h-1.88ZM134.03,216.5l-3.26,4.95h3.26v-4.95ZM138.24,217.33c0-1.51,1.06-2.68,2.65-2.68s2.68,1.17,2.68,2.68-1.08,2.63-2.68,2.63-2.65-1.14-2.65-2.63ZM139.86,225.52l6.84-10.71h1.08l-6.86,10.71h-1.06ZM142.32,217.33c0-.96-.59-1.61-1.43-1.61s-1.41.64-1.41,1.61.59,1.57,1.41,1.57,1.43-.66,1.43-1.57ZM144.01,223.08c0-1.51,1.06-2.68,2.65-2.68s2.67,1.17,2.67,2.68-1.08,2.63-2.67,2.63-2.65-1.14-2.65-2.63ZM148.08,223.08c0-.96-.59-1.61-1.43-1.61s-1.41.64-1.41,1.61.58,1.57,1.41,1.57,1.43-.64,1.43-1.57ZM151.7,221.62c0-2.52-.58-4.32-1.65-6.31l1.04-.79c1.53,1.86,2.44,4.51,2.44,7.1s-.92,5.25-2.44,7.1l-1.04-.8c1.08-1.98,1.65-3.77,1.65-6.3Z"/>
          <path class="st9" d="M48.1,228.54c-.42,0-.75-.34-.75-.75v-12.64l-1.96,2.11c-.28.31-.76.32-1.06.04-.31-.28-.32-.76-.04-1.06l3.26-3.51c.14-.15.34-.24.55-.24s.41.09.55.24l3.26,3.51c.28.3.27.78-.04,1.06-.3.28-.78.27-1.06-.04l-1.96-2.11v12.64c0,.42-.34.75-.75.75Z"/>
          <path class="st4" d="M44.09,316.73v-62.51h53.74l11.51-6.03,1.65-1.1h55.93l12.06,4.94h55.93l25.5,4.12h32.62v60.59H44.09Z"/>
          <path class="st1" d="M44.09,254.22h55.38l12.06-7.13h55.93l12.06,4.39h58.12l13.71,2.74,8.77,1.64h10.97"/>
          <path class="st1" d="M273.3,255.86h3.84-3.84Z"/>
          <path class="st1" d="M278.78,255.86h3.84-3.84Z"/>
          <path class="st1" d="M284,255.86h3.84-3.84Z"/>
          <path class="st1" d="M289.2,255.86h3.84-3.84Z"/>
          <rect class="st11" x="257.94" y="250.38" width="24.13" height="12.06"/>
        </g>
        <g>
          <rect class="st14" x="273.92" y="225.41" width="289.1" height="255.98" rx="9.5" ry="9.5"/>
          <rect class="st2" x="273.92" y="225.41" width="289.1" height="255.98" rx="9.5" ry="9.5"/>
          <path d="M290.02,251.68c0-3.23,2.36-5.54,5.59-5.54s5.61,2.31,5.61,5.54-2.36,5.54-5.61,5.54-5.59-2.31-5.59-5.54ZM298.87,251.68c0-2.01-1.28-3.52-3.26-3.52s-3.24,1.51-3.24,3.52,1.27,3.52,3.24,3.52,3.26-1.53,3.26-3.52ZM304.81,259.98h-2.04v-10.71h2.04v.98c.59-.75,1.45-1.17,2.39-1.17,1.99,0,3.44,1.48,3.44,4.06s-1.45,4.08-3.44,4.08c-.92,0-1.77-.39-2.39-1.19v3.95ZM308.52,253.14c0-1.33-.79-2.25-1.96-2.25-.66,0-1.41.39-1.75.88v2.75c.34.48,1.09.88,1.75.88,1.17,0,1.96-.92,1.96-2.26ZM314.2,259.98h-2.04v-10.71h2.04v.98c.59-.75,1.45-1.17,2.39-1.17,1.99,0,3.44,1.48,3.44,4.06s-1.45,4.08-3.44,4.08c-.92,0-1.77-.39-2.39-1.19v3.95ZM317.91,253.14c0-1.33-.79-2.25-1.96-2.25-.66,0-1.41.39-1.75.88v2.75c.34.48,1.09.88,1.75.88,1.17,0,1.96-.92,1.96-2.26ZM325.16,257.22c-2.55,0-4.1-1.86-4.1-4.08s1.54-4.06,4.1-4.06,4.11,1.86,4.11,4.06-1.54,4.08-4.11,4.08ZM325.16,255.41c1.27,0,1.99-1.04,1.99-2.26s-.72-2.25-1.99-2.25-1.98,1.04-1.98,2.25.71,2.26,1.98,2.26ZM330.78,257.03v-7.76h2.04v1.06c.55-.69,1.51-1.24,2.47-1.24v1.99c-.14-.03-.34-.05-.56-.05-.67,0-1.57.37-1.91.87v5.12h-2.04ZM339.17,257.22c-1.43,0-2.2-.74-2.2-2.12v-4.05h-1.28v-1.78h1.28v-2.12h2.06v2.12h1.57v1.78h-1.57v3.5c0,.48.26.85.71.85.31,0,.59-.11.71-.22l.43,1.54c-.31.27-.85.5-1.7.5ZM347.23,257.03v-.98c-.53.59-1.46,1.17-2.73,1.17-1.7,0-2.51-.93-2.51-2.44v-5.51h2.04v4.71c0,1.08.56,1.43,1.43,1.43.79,0,1.41-.43,1.77-.88v-5.25h2.04v7.76h-2.04ZM356.53,257.03v-4.69c0-1.08-.56-1.45-1.43-1.45-.8,0-1.43.45-1.77.92v5.22h-2.04v-7.76h2.04v1.01c.5-.59,1.45-1.2,2.71-1.2,1.7,0,2.52.96,2.52,2.47v5.48h-2.04ZM361.61,248.13c-.66,0-1.22-.55-1.22-1.22s.56-1.22,1.22-1.22,1.22.55,1.22,1.22-.55,1.22-1.22,1.22ZM360.6,257.03v-7.76h2.04v7.76h-2.04ZM367.26,257.22c-1.43,0-2.2-.74-2.2-2.12v-4.05h-1.28v-1.78h1.28v-2.12h2.06v2.12h1.57v1.78h-1.57v3.5c0,.48.26.85.71.85.31,0,.59-.11.71-.22l.43,1.54c-.31.27-.85.5-1.7.5ZM371.1,248.13c-.66,0-1.22-.55-1.22-1.22s.56-1.22,1.22-1.22,1.22.55,1.22,1.22-.55,1.22-1.22,1.22ZM370.09,257.03v-7.76h2.04v7.76h-2.04ZM373.65,253.14c0-2.25,1.65-4.06,4.02-4.06s3.89,1.73,3.89,4.27v.45h-5.77c.13.98.92,1.8,2.23,1.8.72,0,1.57-.29,2.07-.77l.9,1.32c-.79.72-1.99,1.08-3.2,1.08-2.36,0-4.14-1.59-4.14-4.08ZM377.67,250.7c-1.27,0-1.81.95-1.91,1.72h3.82c-.05-.74-.56-1.72-1.91-1.72ZM382.35,256.02l.88-1.43c.56.53,1.72,1.06,2.68,1.06.88,0,1.3-.31,1.3-.79,0-.55-.67-.74-1.56-.92-1.33-.26-3.05-.58-3.05-2.43,0-1.3,1.14-2.44,3.18-2.44,1.32,0,2.36.45,3.12,1.06l-.8,1.4c-.47-.5-1.35-.9-2.3-.9-.74,0-1.22.27-1.22.72,0,.48.61.66,1.48.84,1.33.26,3.12.61,3.12,2.54,0,1.43-1.2,2.49-3.36,2.49-1.35,0-2.65-.45-3.47-1.2Z"/>
          <path class="st15" d="M290.49,276.1v-8.7h5.7v.97h-4.62v2.81h4.53v.97h-4.53v3h4.62v.97h-5.7ZM301.82,276.1v-.72c-.52.57-1.24.87-2.09.87-1.07,0-2.21-.72-2.21-2.09s1.14-2.07,2.21-2.07c.86,0,1.58.27,2.09.86v-1.14c0-.85-.68-1.33-1.59-1.33-.76,0-1.37.27-1.93.87l-.46-.68c.68-.7,1.49-1.04,2.52-1.04,1.33,0,2.44.6,2.44,2.13v4.33h-.98ZM301.82,274.77v-1.19c-.38-.52-1.04-.78-1.74-.78-.91,0-1.55.57-1.55,1.38s.64,1.37,1.55,1.37c.69,0,1.36-.26,1.74-.78ZM304.77,276.1v-6.3h.98v1.02c.51-.67,1.24-1.15,2.1-1.15v1c-.12-.03-.23-.04-.39-.04-.6,0-1.42.5-1.71,1v4.46h-.98ZM313.33,276.1v-4.12c0-1.11-.56-1.46-1.41-1.46-.77,0-1.5.47-1.87.98v4.61h-.98v-6.3h.98v.91c.44-.52,1.3-1.07,2.24-1.07,1.32,0,2.01.67,2.01,2.04v4.42h-.98ZM316.74,268.74c-.35,0-.65-.3-.65-.67s.3-.65.65-.65.67.29.67.65-.3.67-.67.67ZM316.26,276.1v-6.3h.98v6.3h-.98ZM323.45,276.1v-4.12c0-1.11-.56-1.46-1.41-1.46-.77,0-1.5.47-1.87.98v4.61h-.98v-6.3h.98v.91c.44-.52,1.3-1.07,2.24-1.07,1.32,0,2.01.67,2.01,2.04v4.42h-.98ZM326.37,277.72l.5-.73c.52.63,1.15.86,2.05.86,1.04,0,2.02-.51,2.02-1.89v-.9c-.46.64-1.23,1.12-2.11,1.12-1.64,0-2.81-1.23-2.81-3.26s1.15-3.28,2.81-3.28c.85,0,1.61.42,2.11,1.11v-.95h.98v6.12c0,2.09-1.46,2.74-3,2.74-1.07,0-1.8-.21-2.54-.94ZM330.93,274.29v-2.75c-.34-.55-1.1-1.02-1.88-1.02-1.27,0-2.02,1-2.02,2.4s.76,2.4,2.02,2.4c.78,0,1.54-.48,1.88-1.03ZM333.32,275.27l.51-.7c.42.48,1.21.9,2.07.9.97,0,1.49-.43,1.49-1.04,0-.69-.77-.91-1.62-1.12-1.07-.25-2.28-.54-2.28-1.84,0-.98.85-1.81,2.35-1.81,1.07,0,1.83.4,2.34.91l-.46.68c-.38-.46-1.07-.8-1.88-.8-.86,0-1.4.39-1.4.95,0,.61.72.81,1.54,1,1.1.25,2.36.56,2.36,1.96,0,1.06-.85,1.91-2.48,1.91-1.03,0-1.91-.31-2.54-.99ZM343.29,277.72l.5-.73c.52.63,1.15.86,2.05.86,1.04,0,2.02-.51,2.02-1.89v-.9c-.46.64-1.23,1.12-2.11,1.12-1.64,0-2.81-1.23-2.81-3.26s1.15-3.28,2.81-3.28c.85,0,1.61.42,2.11,1.11v-.95h.98v6.12c0,2.09-1.46,2.74-3,2.74-1.07,0-1.8-.21-2.54-.94ZM347.86,274.29v-2.75c-.34-.55-1.1-1.02-1.88-1.02-1.27,0-2.02,1-2.02,2.4s.76,2.4,2.02,2.4c.78,0,1.54-.48,1.88-1.03ZM354.74,276.1v-.72c-.52.57-1.24.87-2.09.87-1.07,0-2.21-.72-2.21-2.09s1.14-2.07,2.21-2.07c.86,0,1.58.27,2.09.86v-1.14c0-.85-.68-1.33-1.59-1.33-.76,0-1.37.27-1.93.87l-.46-.68c.68-.7,1.49-1.04,2.52-1.04,1.33,0,2.44.6,2.44,2.13v4.33h-.98ZM354.74,274.77v-1.19c-.38-.52-1.04-.78-1.74-.78-.91,0-1.55.57-1.55,1.38s.64,1.37,1.55,1.37c.69,0,1.36-.26,1.74-.78ZM358.16,268.74c-.35,0-.65-.3-.65-.67s.3-.65.65-.65.67.29.67.65-.3.67-.67.67ZM357.68,276.1v-6.3h.98v6.3h-.98ZM364.86,276.1v-4.12c0-1.11-.56-1.46-1.41-1.46-.77,0-1.5.47-1.87.98v4.61h-.98v-6.3h.98v.91c.44-.52,1.3-1.07,2.24-1.07,1.32,0,2.01.67,2.01,2.04v4.42h-.98ZM371.44,276.1v-5.44h-1.04v-.86h1.04v-.48c0-1.3.73-2.05,1.83-2.05.37,0,.7.07.95.22l-.25.73c-.16-.09-.34-.14-.56-.14-.64,0-.99.44-.99,1.24v.48h1.28v.86h-1.28v5.44h-.98ZM374.86,276.1v-6.3h.98v1.02c.51-.67,1.24-1.15,2.1-1.15v1c-.12-.03-.23-.04-.39-.04-.6,0-1.42.5-1.71,1v4.46h-.98ZM381.92,276.26c-1.92,0-3.12-1.49-3.12-3.31s1.2-3.3,3.12-3.3,3.12,1.47,3.12,3.3-1.2,3.31-3.12,3.31ZM381.92,275.38c1.34,0,2.09-1.15,2.09-2.44s-.74-2.43-2.09-2.43-2.1,1.15-2.1,2.43.76,2.44,2.1,2.44ZM394.24,276.1v-4.28c0-.8-.35-1.3-1.16-1.3-.65,0-1.34.47-1.67.97v4.62h-.98v-4.28c0-.8-.34-1.3-1.16-1.3-.64,0-1.32.47-1.66.98v4.61h-.98v-6.3h.98v.91c.26-.4,1.11-1.07,2.04-1.07s1.51.52,1.7,1.17c.35-.57,1.2-1.17,2.11-1.17,1.15,0,1.76.64,1.76,1.91v4.55h-.98ZM404.8,276.1v-4.15c0-1.11-.57-1.44-1.42-1.44-.76,0-1.49.47-1.87.98v4.61h-.98v-8.7h.98v3.31c.44-.52,1.3-1.07,2.26-1.07,1.32,0,2.01.64,2.01,2.01v4.45h-.98ZM408.22,268.74c-.35,0-.65-.3-.65-.67s.3-.65.65-.65.67.29.67.65-.3.67-.67.67ZM407.74,276.1v-6.3h.98v6.3h-.98ZM412.26,276.26c-.93,0-1.4-.54-1.4-1.47v-4.12h-1.04v-.86h1.04v-1.72h.98v1.72h1.28v.86h-1.28v3.91c0,.47.21.81.64.81.27,0,.54-.12.67-.26l.29.73c-.25.23-.6.4-1.17.4ZM416.1,276.26c-.93,0-1.4-.54-1.4-1.47v-4.12h-1.04v-.86h1.04v-1.72h.98v1.72h1.28v.86h-1.28v3.91c0,.47.21.81.64.81.27,0,.54-.12.67-.26l.29.73c-.25.23-.6.4-1.17.4ZM418.82,268.74c-.35,0-.65-.3-.65-.67s.3-.65.65-.65.67.29.67.65-.3.67-.67.67ZM418.34,276.1v-6.3h.98v6.3h-.98ZM425.52,276.1v-4.12c0-1.11-.56-1.46-1.41-1.46-.77,0-1.5.47-1.87.98v4.61h-.98v-6.3h.98v.91c.44-.52,1.3-1.07,2.24-1.07,1.32,0,2.01.67,2.01,2.04v4.42h-.98ZM428.45,277.72l.5-.73c.52.63,1.15.86,2.05.86,1.04,0,2.02-.51,2.02-1.89v-.9c-.46.64-1.23,1.12-2.11,1.12-1.64,0-2.81-1.23-2.81-3.26s1.15-3.28,2.81-3.28c.85,0,1.61.42,2.11,1.11v-.95h.98v6.12c0,2.09-1.46,2.74-3,2.74-1.07,0-1.8-.21-2.54-.94ZM433.01,274.29v-2.75c-.34-.55-1.1-1.02-1.88-1.02-1.27,0-2.02,1-2.02,2.4s.76,2.4,2.02,2.4c.78,0,1.54-.48,1.88-1.03ZM440.91,276.26c-.93,0-1.4-.54-1.4-1.47v-4.12h-1.04v-.86h1.04v-1.72h.98v1.72h1.28v.86h-1.28v3.91c0,.47.21.81.64.81.27,0,.54-.12.67-.26l.29.73c-.25.23-.6.4-1.17.4ZM447.42,276.1v-4.15c0-1.11-.57-1.44-1.42-1.44-.76,0-1.49.47-1.87.98v4.61h-.98v-8.7h.98v3.31c.44-.52,1.3-1.07,2.26-1.07,1.32,0,2.01.64,2.01,2.01v4.45h-.98ZM449.99,272.94c0-1.83,1.3-3.3,3.11-3.3,1.91,0,3.03,1.49,3.03,3.38v.25h-5.1c.08,1.19.91,2.18,2.27,2.18.72,0,1.45-.29,1.94-.8l.47.64c-.63.63-1.47.97-2.51.97-1.87,0-3.21-1.34-3.21-3.31ZM453.08,270.45c-1.34,0-2.01,1.14-2.06,2.1h4.14c-.01-.94-.64-2.1-2.07-2.1ZM465.32,276.1v-4.12c0-1.11-.56-1.46-1.41-1.46-.77,0-1.5.47-1.87.98v4.61h-.98v-6.3h.98v.91c.44-.52,1.31-1.07,2.24-1.07,1.32,0,2.01.67,2.01,2.04v4.42h-.98ZM467.89,272.94c0-1.83,1.3-3.3,3.11-3.3,1.91,0,3.03,1.49,3.03,3.38v.25h-5.1c.08,1.19.91,2.18,2.27,2.18.72,0,1.45-.29,1.94-.8l.47.64c-.63.63-1.47.97-2.51.97-1.87,0-3.21-1.34-3.21-3.31ZM470.98,270.45c-1.34,0-2.01,1.14-2.06,2.1h4.14c-.01-.94-.64-2.1-2.07-2.1ZM479.27,276.1l-1.89-2.58-1.89,2.58h-1.12l2.41-3.24-2.28-3.07h1.14l1.75,2.4,1.75-2.4h1.14l-2.28,3.07,2.43,3.24h-1.14ZM483.13,276.26c-.93,0-1.4-.54-1.4-1.47v-4.12h-1.04v-.86h1.04v-1.72h.98v1.72h1.28v.86h-1.28v3.91c0,.47.21.81.64.81.27,0,.54-.12.67-.26l.29.73c-.25.23-.6.4-1.17.4ZM490.33,276.26c-.93,0-1.4-.54-1.4-1.47v-4.12h-1.04v-.86h1.04v-1.72h.98v1.72h1.28v.86h-1.28v3.91c0,.47.21.81.64.81.27,0,.54-.12.67-.26l.29.73c-.25.23-.6.4-1.17.4ZM493.06,268.74c-.35,0-.65-.3-.65-.67s.3-.65.65-.65.67.29.67.65-.3.67-.67.67ZM492.57,276.1v-6.3h.98v6.3h-.98ZM495.14,272.94c0-1.83,1.3-3.3,3.11-3.3,1.91,0,3.03,1.49,3.03,3.38v.25h-5.1c.08,1.19.91,2.18,2.27,2.18.72,0,1.45-.29,1.94-.8l.47.64c-.63.63-1.47.97-2.51.97-1.87,0-3.21-1.34-3.21-3.31ZM498.23,270.45c-1.34,0-2.01,1.14-2.06,2.1h4.14c-.01-.94-.64-2.1-2.07-2.1ZM502.86,276.1v-6.3h.98v1.02c.51-.67,1.24-1.15,2.1-1.15v1c-.12-.03-.23-.04-.39-.04-.6,0-1.42.5-1.71,1v4.46h-.98Z"/>
          <path d="M291.08,321.27v-2.96c8.32-6.3,11.56-9.09,11.56-12.17,0-2.25-1.93-3.28-3.89-3.28-2.51,0-4.43,1.03-5.78,2.57l-2.18-2.47c1.9-2.28,4.91-3.44,7.9-3.44,4.14,0,7.77,2.34,7.77,6.62,0,3.95-3.63,7.48-9.38,11.82h9.51v3.31h-15.52ZM310.25,319.38c0-1.22,1.03-2.25,2.25-2.25s2.25,1.03,2.25,2.25-1.03,2.25-2.25,2.25-2.25-1.03-2.25-2.25ZM327.57,321.27v-4.85h-10.21v-3.02l8.8-13.56h5.17v13.27h2.86v3.31h-2.86v4.85h-3.76ZM327.57,303.22l-6.52,9.89h6.52v-9.89ZM336.4,310.61c0-6.2,3.24-11.08,9.44-11.08,2.67,0,4.72.96,6.17,2.38l-1.77,2.86c-1.12-1.19-2.34-1.9-4.4-1.9-3.57,0-5.65,3.31-5.65,7.07,0,.22,0,.42.03.61.96-1.45,3.21-2.99,5.75-2.99,3.85,0,7.16,2.34,7.16,6.91,0,3.98-3.12,7.2-7.9,7.2-6.3,0-8.83-5.11-8.83-11.05ZM349.35,314.59c0-2.63-2.06-3.82-4.4-3.82-1.83,0-3.6,1-4.69,2.54.22,2.31,1.48,5.01,4.79,5.01,2.83,0,4.3-1.99,4.3-3.73ZM375.16,321.27v-16.22l-6.59,16.22h-1.61l-6.55-16.22v16.22h-3.76v-21.43h5.3l5.81,14.42,5.85-14.42h5.3v21.43h-3.76Z"/>
          <path class="st7" d="M312.64,372.47v-8.27l-1.75,1.81-1.09-1.14,3.08-3.12h1.64v10.71h-1.88ZM316.49,371.52c0-.61.51-1.12,1.12-1.12s1.12.51,1.12,1.12-.51,1.12-1.12,1.12-1.12-.51-1.12-1.12ZM320.78,371.46l.87-1.41c.56.58,1.19.93,2.2.93,1.94,0,2.83-1.77,2.83-3.52v-.32c-.5.72-1.62,1.51-2.87,1.51-1.93,0-3.6-1.19-3.6-3.47,0-1.98,1.56-3.6,3.95-3.6,3.15,0,4.42,2.55,4.42,5.54s-1.62,5.53-4.72,5.53c-1.32,0-2.34-.47-3.07-1.19ZM326.64,365.77c-.1-1.16-.74-2.52-2.39-2.52-1.4,0-2.14,1.01-2.14,1.86,0,1.32,1.03,1.91,2.18,1.91.92,0,1.81-.48,2.34-1.25ZM331.18,372.47l4.05-9.06h-5.56v-1.65h7.73v1.3l-4.16,9.41h-2.06ZM338.23,364.28c0-1.51,1.06-2.68,2.65-2.68s2.68,1.17,2.68,2.68-1.08,2.63-2.68,2.63-2.65-1.14-2.65-2.63ZM339.86,372.47l6.84-10.71h1.08l-6.86,10.71h-1.06ZM342.31,364.28c0-.96-.59-1.61-1.43-1.61s-1.41.64-1.41,1.61.59,1.57,1.41,1.57,1.43-.66,1.43-1.57ZM344,370.03c0-1.51,1.06-2.68,2.65-2.68s2.67,1.17,2.67,2.68-1.08,2.63-2.67,2.63-2.65-1.14-2.65-2.63ZM348.08,370.03c0-.96-.59-1.61-1.43-1.61s-1.41.64-1.41,1.61.58,1.57,1.41,1.57,1.43-.64,1.43-1.57Z"/>
          <path class="st15" d="M357.01,375.66c-1.51-1.85-2.43-4.51-2.43-7.1s.92-5.24,2.43-7.1l1.04.79c-1.06,1.99-1.64,3.79-1.64,6.31s.58,4.32,1.64,6.3l-1.04.8ZM359.15,372.47v-1.48c4.16-3.15,5.78-4.55,5.78-6.09,0-1.12-.96-1.64-1.94-1.64-1.25,0-2.22.51-2.89,1.28l-1.09-1.24c.95-1.14,2.46-1.72,3.95-1.72,2.07,0,3.89,1.17,3.89,3.31,0,1.98-1.81,3.74-4.69,5.91h4.75v1.65h-7.76ZM368.73,371.52c0-.61.51-1.12,1.12-1.12s1.12.51,1.12,1.12-.51,1.12-1.12,1.12-1.12-.51-1.12-1.12ZM372.74,371.01l1.08-1.28c.72.82,1.69,1.27,2.89,1.27,1.35,0,2.2-.84,2.2-1.88,0-1.16-.84-1.91-2.15-1.91-.92,0-1.67.29-2.34.93l-1.33-.39v-5.99h7.02v1.65h-5.14v3.1c.51-.51,1.4-.93,2.43-.93,1.8,0,3.42,1.27,3.42,3.45s-1.69,3.63-4.08,3.63c-1.85,0-3.12-.63-3.98-1.65ZM384.55,372.47v-8.27l-1.75,1.81-1.09-1.14,3.08-3.12h1.64v10.71h-1.88ZM397.96,372.47v-8.11l-3.29,8.11h-.8l-3.28-8.11v8.11h-1.88v-10.71h2.65l2.91,7.21,2.92-7.21h2.65v10.71h-1.88ZM402.91,368.57c0-2.52-.58-4.32-1.65-6.31l1.04-.79c1.53,1.86,2.44,4.51,2.44,7.1s-.92,5.25-2.44,7.1l-1.04-.8c1.08-1.98,1.65-3.77,1.65-6.3Z"/>
          <path class="st6" d="M298.51,359.42c.42,0,.75.34.75.75v12.64l1.96-2.11c.28-.31.76-.32,1.06-.04.31.28.32.76.04,1.06l-3.26,3.51c-.14.15-.34.24-.55.24s-.41-.09-.55-.24l-3.26-3.51c-.28-.3-.27-.78.04-1.06.3-.28.78-.27,1.06.04l1.96,2.11v-12.64c0-.42.34-.75.75-.75Z"/>
          <path class="st16" d="M289.48,463.82v-29.33h126.92l25.38-22.56h102.67v51.9h-254.97Z"/>
          <path class="st0" d="M289.48,434.48h126.36l26.51-22.56h73.33"/>
          <path class="st0" d="M517.93,411.92h3.95"/>
          <path class="st0" d="M523.58,411.92h3.95"/>
          <path class="st0" d="M529.22,411.92h3.95"/>
          <path class="st0" d="M534.86,411.92h3.95"/>
          <path class="st0" d="M540.5,411.92h3.95"/>
        </g>
        <g>
          <rect class="st14" x="32.38" y="411.58" width="289.1" height="255.98" rx="9.5" ry="9.5"/>
          <rect class="st2" x="32.38" y="411.58" width="289.1" height="255.98" rx="9.5" ry="9.5"/>
          <path d="M55.05,443.2l-2.1-3.84h-1.67v3.84h-2.28v-10.71h5.01c2.23,0,3.6,1.46,3.6,3.45s-1.19,2.91-2.34,3.18l2.41,4.08h-2.62ZM55.27,435.92c0-.9-.69-1.48-1.61-1.48h-2.39v2.96h2.39c.92,0,1.61-.58,1.61-1.48ZM60.28,434.3c-.66,0-1.22-.55-1.22-1.22s.56-1.22,1.22-1.22,1.22.55,1.22,1.22-.55,1.22-1.22,1.22ZM59.27,443.2v-7.76h2.04v7.76h-2.04ZM62.65,442.19l.88-1.43c.56.53,1.72,1.06,2.68,1.06.88,0,1.3-.31,1.3-.79,0-.55-.67-.74-1.56-.92-1.33-.26-3.05-.58-3.05-2.43,0-1.3,1.14-2.44,3.18-2.44,1.32,0,2.36.45,3.12,1.06l-.8,1.4c-.47-.5-1.35-.9-2.3-.9-.74,0-1.22.27-1.22.72,0,.48.61.66,1.48.84,1.33.26,3.12.61,3.12,2.54,0,1.43-1.2,2.49-3.36,2.49-1.35,0-2.65-.45-3.47-1.2ZM76.01,443.2l-2.06-2.99-.93,1v1.99h-2.04v-10.71h2.04v6.41l2.94-3.45h2.51l-3.07,3.52,3.16,4.24h-2.55ZM78.79,442.19l.88-1.43c.56.53,1.72,1.06,2.68,1.06.88,0,1.3-.31,1.3-.79,0-.55-.67-.74-1.56-.92-1.33-.26-3.05-.58-3.05-2.43,0-1.3,1.14-2.44,3.18-2.44,1.32,0,2.36.45,3.12,1.06l-.8,1.4c-.47-.5-1.35-.9-2.3-.9-.74,0-1.22.27-1.22.72,0,.48.61.66,1.48.84,1.33.26,3.12.61,3.12,2.54,0,1.43-1.2,2.49-3.36,2.49-1.35,0-2.65-.45-3.47-1.2Z"/>
          <path class="st15" d="M48.95,462.27v-8.7h5.7v.97h-4.62v2.81h4.53v.97h-4.53v3h4.62v.97h-5.7ZM60.28,462.27v-.72c-.52.57-1.24.87-2.09.87-1.07,0-2.21-.72-2.21-2.09s1.14-2.07,2.21-2.07c.86,0,1.58.27,2.09.86v-1.14c0-.85-.68-1.33-1.59-1.33-.76,0-1.37.27-1.93.87l-.46-.68c.68-.7,1.49-1.04,2.52-1.04,1.33,0,2.44.6,2.44,2.13v4.33h-.98ZM60.28,460.94v-1.19c-.38-.52-1.04-.78-1.74-.78-.91,0-1.55.57-1.55,1.38s.64,1.37,1.55,1.37c.69,0,1.36-.26,1.74-.78ZM63.22,462.27v-6.3h.98v1.02c.51-.67,1.24-1.15,2.1-1.15v1c-.12-.03-.23-.04-.39-.04-.6,0-1.42.5-1.71,1v4.46h-.98ZM71.79,462.27v-4.12c0-1.11-.56-1.46-1.41-1.46-.77,0-1.5.47-1.87.98v4.61h-.98v-6.3h.98v.91c.44-.52,1.3-1.07,2.24-1.07,1.32,0,2.01.67,2.01,2.04v4.42h-.98ZM75.2,454.91c-.35,0-.65-.3-.65-.67s.3-.65.65-.65.67.29.67.65-.3.67-.67.67ZM74.72,462.27v-6.3h.98v6.3h-.98ZM81.91,462.27v-4.12c0-1.11-.56-1.46-1.41-1.46-.77,0-1.5.47-1.87.98v4.61h-.98v-6.3h.98v.91c.44-.52,1.3-1.07,2.24-1.07,1.32,0,2.01.67,2.01,2.04v4.42h-.98ZM84.83,463.89l.5-.73c.52.63,1.15.86,2.05.86,1.04,0,2.02-.51,2.02-1.89v-.9c-.46.64-1.23,1.12-2.11,1.12-1.64,0-2.81-1.23-2.81-3.26s1.15-3.28,2.81-3.28c.85,0,1.61.42,2.11,1.11v-.95h.98v6.12c0,2.09-1.46,2.74-3,2.74-1.07,0-1.8-.21-2.54-.94ZM89.39,460.46v-2.75c-.34-.55-1.1-1.02-1.88-1.02-1.27,0-2.02,1-2.02,2.4s.76,2.4,2.02,2.4c.78,0,1.54-.48,1.88-1.03ZM91.78,461.44l.51-.7c.42.48,1.21.9,2.07.9.97,0,1.49-.43,1.49-1.04,0-.69-.77-.91-1.62-1.12-1.07-.25-2.28-.54-2.28-1.84,0-.98.85-1.81,2.35-1.81,1.07,0,1.83.4,2.34.91l-.46.68c-.38-.46-1.07-.8-1.88-.8-.86,0-1.4.39-1.4.95,0,.61.72.81,1.54,1,1.1.25,2.36.56,2.36,1.96,0,1.06-.85,1.91-2.48,1.91-1.03,0-1.91-.31-2.54-.99ZM101.76,462.27v-8.7h.98v8.7h-.98ZM107.45,462.43c-1.92,0-3.12-1.49-3.12-3.31s1.2-3.3,3.12-3.3,3.12,1.47,3.12,3.3-1.2,3.31-3.12,3.31ZM107.45,461.55c1.34,0,2.09-1.15,2.09-2.44s-.74-2.43-2.09-2.43-2.1,1.15-2.1,2.43.76,2.44,2.1,2.44ZM111.61,461.44l.51-.7c.42.48,1.21.9,2.07.9.97,0,1.49-.43,1.49-1.04,0-.69-.77-.91-1.62-1.12-1.07-.25-2.28-.54-2.28-1.84,0-.98.85-1.81,2.35-1.81,1.07,0,1.83.4,2.34.91l-.46.68c-.38-.46-1.07-.8-1.88-.8-.86,0-1.4.39-1.4.95,0,.61.72.81,1.54,1,1.1.25,2.36.56,2.36,1.96,0,1.06-.85,1.91-2.48,1.91-1.03,0-1.91-.31-2.54-.99ZM117.68,461.44l.51-.7c.42.48,1.21.9,2.07.9.97,0,1.49-.43,1.49-1.04,0-.69-.77-.91-1.62-1.12-1.07-.25-2.28-.54-2.28-1.84,0-.98.85-1.81,2.35-1.81,1.07,0,1.83.4,2.34.91l-.46.68c-.38-.46-1.07-.8-1.88-.8-.86,0-1.4.39-1.4.95,0,.61.72.81,1.54,1,1.1.25,2.36.56,2.36,1.96,0,1.06-.85,1.91-2.48,1.91-1.03,0-1.91-.31-2.54-.99ZM127.93,462.27v-5.44h-1.04v-.86h1.04v-.48c0-1.3.73-2.05,1.83-2.05.37,0,.7.07.95.22l-.25.73c-.16-.09-.34-.14-.56-.14-.64,0-.99.44-.99,1.24v.48h1.28v.86h-1.28v5.44h-.98ZM131.35,462.27v-6.3h.98v1.02c.51-.67,1.24-1.15,2.1-1.15v1c-.12-.03-.23-.04-.39-.04-.6,0-1.42.5-1.71,1v4.46h-.98ZM138.41,462.43c-1.92,0-3.12-1.49-3.12-3.31s1.2-3.3,3.12-3.3,3.12,1.47,3.12,3.3-1.2,3.31-3.12,3.31ZM138.41,461.55c1.34,0,2.09-1.15,2.09-2.44s-.74-2.43-2.09-2.43-2.1,1.15-2.1,2.43.76,2.44,2.1,2.44ZM150.74,462.27v-4.28c0-.8-.35-1.3-1.16-1.3-.65,0-1.34.47-1.67.97v4.62h-.98v-4.28c0-.8-.34-1.3-1.16-1.3-.64,0-1.32.47-1.66.98v4.61h-.98v-6.3h.98v.91c.26-.4,1.11-1.07,2.04-1.07s1.51.52,1.7,1.17c.35-.57,1.2-1.17,2.11-1.17,1.15,0,1.76.64,1.76,1.91v4.55h-.98ZM164.64,462.27v-4.28c0-.8-.35-1.3-1.16-1.3-.65,0-1.34.47-1.67.97v4.62h-.98v-4.28c0-.8-.34-1.3-1.16-1.3-.64,0-1.32.47-1.66.98v4.61h-.98v-6.3h.98v.91c.26-.4,1.11-1.07,2.04-1.07s1.51.52,1.7,1.17c.35-.57,1.2-1.17,2.11-1.17,1.15,0,1.76.64,1.76,1.91v4.55h-.98ZM168.05,454.91c-.35,0-.65-.3-.65-.67s.3-.65.65-.65.67.29.67.65-.3.67-.67.67ZM167.57,462.27v-6.3h.98v6.3h-.98ZM169.95,461.44l.51-.7c.42.48,1.21.9,2.07.9.97,0,1.49-.43,1.49-1.04,0-.69-.77-.91-1.62-1.12-1.07-.25-2.28-.54-2.28-1.84,0-.98.85-1.81,2.35-1.81,1.07,0,1.83.4,2.34.91l-.46.68c-.38-.46-1.07-.8-1.88-.8-.86,0-1.4.39-1.4.95,0,.61.72.81,1.54,1,1.1.25,2.36.56,2.36,1.96,0,1.06-.85,1.91-2.48,1.91-1.03,0-1.91-.31-2.54-.99ZM176.02,461.44l.51-.7c.42.48,1.21.9,2.07.9.97,0,1.49-.43,1.49-1.04,0-.69-.77-.91-1.62-1.12-1.07-.25-2.28-.54-2.28-1.84,0-.98.85-1.81,2.35-1.81,1.07,0,1.83.4,2.34.91l-.46.68c-.38-.46-1.07-.8-1.88-.8-.86,0-1.4.39-1.4.95,0,.61.72.81,1.54,1,1.1.25,2.36.56,2.36,1.96,0,1.06-.85,1.91-2.48,1.91-1.03,0-1.91-.31-2.54-.99ZM183.12,454.91c-.35,0-.65-.3-.65-.67s.3-.65.65-.65.67.29.67.65-.3.67-.67.67ZM182.64,462.27v-6.3h.98v6.3h-.98ZM189.82,462.27v-4.12c0-1.11-.56-1.46-1.41-1.46-.77,0-1.5.47-1.87.98v4.61h-.98v-6.3h.98v.91c.44-.52,1.31-1.07,2.24-1.07,1.32,0,2.01.67,2.01,2.04v4.42h-.98ZM192.74,463.89l.5-.73c.52.63,1.15.86,2.05.86,1.04,0,2.02-.51,2.02-1.89v-.9c-.46.64-1.23,1.12-2.11,1.12-1.64,0-2.81-1.23-2.81-3.26s1.15-3.28,2.81-3.28c.85,0,1.61.42,2.11,1.11v-.95h.98v6.12c0,2.09-1.46,2.74-3,2.74-1.07,0-1.8-.21-2.54-.94ZM197.31,460.46v-2.75c-.34-.55-1.1-1.02-1.88-1.02-1.27,0-2.02,1-2.02,2.4s.76,2.4,2.02,2.4c.78,0,1.54-.48,1.88-1.03ZM205.2,462.43c-.93,0-1.4-.54-1.4-1.47v-4.12h-1.04v-.86h1.04v-1.72h.98v1.72h1.28v.86h-1.28v3.91c0,.47.21.81.64.81.27,0,.53-.12.67-.26l.29.73c-.25.23-.6.4-1.17.4ZM211.72,462.27v-4.15c0-1.11-.57-1.44-1.42-1.44-.76,0-1.49.47-1.87.98v4.61h-.98v-8.7h.98v3.31c.44-.52,1.3-1.07,2.26-1.07,1.32,0,2.01.64,2.01,2.01v4.45h-.98ZM214.28,459.11c0-1.83,1.3-3.3,3.11-3.3,1.91,0,3.03,1.49,3.03,3.38v.25h-5.1c.08,1.19.91,2.18,2.27,2.18.72,0,1.45-.29,1.94-.8l.47.64c-.63.63-1.47.97-2.51.97-1.87,0-3.21-1.34-3.21-3.31ZM217.38,456.62c-1.34,0-2.01,1.14-2.06,2.1h4.14c-.01-.94-.64-2.1-2.07-2.1ZM225,459.11c0-1.87,1.27-3.3,3.14-3.3,1.15,0,1.83.47,2.31,1.1l-.65.6c-.42-.57-.95-.82-1.61-.82-1.34,0-2.18,1.03-2.18,2.43s.84,2.44,2.18,2.44c.65,0,1.19-.26,1.61-.82l.65.6c-.48.63-1.16,1.1-2.31,1.1-1.88,0-3.14-1.44-3.14-3.31ZM236.08,462.27v-.89c-.48.55-1.3,1.04-2.24,1.04-1.32,0-2.01-.64-2.01-2.01v-4.45h.98v4.15c0,1.11.56,1.44,1.41,1.44.77,0,1.5-.44,1.87-.95v-4.63h.98v6.3h-.98ZM239.01,462.27v-6.3h.98v1.02c.51-.67,1.24-1.15,2.1-1.15v1c-.12-.03-.23-.04-.39-.04-.6,0-1.42.5-1.71,1v4.46h-.98ZM243.32,462.27v-6.3h.98v1.02c.5-.67,1.24-1.15,2.1-1.15v1c-.12-.03-.23-.04-.39-.04-.6,0-1.42.5-1.71,1v4.46h-.98ZM247.26,459.11c0-1.83,1.3-3.3,3.1-3.3,1.91,0,3.03,1.49,3.03,3.38v.25h-5.1c.07,1.19.91,2.18,2.27,2.18.71,0,1.45-.29,1.95-.8l.46.64c-.62.63-1.48.97-2.5.97-1.87,0-3.21-1.34-3.21-3.31ZM250.36,456.62c-1.35,0-2.01,1.14-2.06,2.1h4.14c-.02-.94-.64-2.1-2.08-2.1ZM259.24,462.27v-4.12c0-1.11-.56-1.46-1.42-1.46-.76,0-1.5.47-1.87.98v4.61h-.97v-6.3h.97v.91c.45-.52,1.31-1.07,2.25-1.07,1.32,0,2.01.67,2.01,2.04v4.42h-.97ZM263.76,462.43c-.92,0-1.4-.54-1.4-1.47v-4.12h-1.04v-.86h1.04v-1.72h.98v1.72h1.27v.86h-1.27v3.91c0,.47.21.81.64.81.27,0,.53-.12.66-.26l.28.73c-.24.23-.59.4-1.17.4ZM270.97,462.43c-.93,0-1.4-.54-1.4-1.47v-4.12h-1.04v-.86h1.04v-1.72h.97v1.72h1.28v.86h-1.28v3.91c0,.47.21.81.64.81.27,0,.53-.12.66-.26l.29.73c-.25.23-.6.4-1.17.4ZM273.69,454.91c-.35,0-.65-.3-.65-.67s.3-.65.65-.65c.37,0,.67.29.67.65s-.3.67-.67.67ZM273.2,462.27v-6.3h.98v6.3h-.98ZM275.77,459.11c0-1.83,1.31-3.3,3.1-3.3,1.91,0,3.03,1.49,3.03,3.38v.25h-5.1c.07,1.19.91,2.18,2.27,2.18.71,0,1.45-.29,1.94-.8l.47.64c-.62.63-1.48.97-2.5.97-1.87,0-3.21-1.34-3.21-3.31ZM278.87,456.62c-1.35,0-2.01,1.14-2.06,2.1h4.14c-.02-.94-.64-2.1-2.08-2.1ZM283.49,462.27v-6.3h.97v1.02c.51-.67,1.24-1.15,2.11-1.15v1c-.12-.03-.24-.04-.39-.04-.6,0-1.43.5-1.72,1v4.46h-.97Z"/>
          <path d="M49.54,507.44v-2.96c8.32-6.3,11.56-9.09,11.56-12.17,0-2.25-1.93-3.28-3.89-3.28-2.51,0-4.43,1.03-5.78,2.57l-2.18-2.47c1.9-2.28,4.91-3.44,7.9-3.44,4.14,0,7.77,2.34,7.77,6.62,0,3.95-3.63,7.48-9.38,11.82h9.51v3.31h-15.52ZM68.71,505.55c0-1.22,1.03-2.25,2.25-2.25s2.25,1.03,2.25,2.25-1.03,2.25-2.25,2.25-2.25-1.03-2.25-2.25ZM76.52,507.44v-2.96c8.32-6.3,11.56-9.09,11.56-12.17,0-2.25-1.93-3.28-3.89-3.28-2.51,0-4.43,1.03-5.78,2.57l-2.18-2.47c1.9-2.28,4.91-3.44,7.9-3.44,4.14,0,7.77,2.34,7.77,6.62,0,3.95-3.63,7.48-9.38,11.82h9.51v3.31h-15.52ZM95.37,501.95c0-2.73,2.22-4.69,4.82-5.56-2.41-.77-4.47-2.34-4.47-5.08,0-3.95,4.05-5.62,7.87-5.62s7.87,1.67,7.87,5.62c0,2.73-2.09,4.3-4.5,5.08,2.6.87,4.82,2.83,4.82,5.56,0,3.82-3.82,5.88-8.19,5.88s-8.22-2.02-8.22-5.88ZM107.64,491.9c0-1.8-1.77-2.86-4.05-2.86s-4.08,1.06-4.08,2.86c0,2.02,2.76,2.79,4.08,3.02,1.32-.22,4.05-1,4.05-3.02ZM107.99,501.47c0-2.22-3.08-3.21-4.4-3.37-1.35.16-4.43,1.16-4.43,3.37,0,1.86,1.99,3.02,4.43,3.02s4.4-1.16,4.4-3.02ZM133.9,507.44v-16.22l-6.59,16.22h-1.61l-6.55-16.22v16.22h-3.76v-21.43h5.3l5.81,14.42,5.85-14.42h5.3v21.43h-3.76Z"/>
          <path class="st13" d="M71.09,558.64v-8.27l-1.75,1.81-1.09-1.14,3.08-3.12h1.64v10.71h-1.88ZM74.95,557.69c0-.61.51-1.12,1.12-1.12s1.12.51,1.12,1.12-.51,1.12-1.12,1.12-1.12-.51-1.12-1.12ZM79.24,557.63l.87-1.41c.56.58,1.19.93,2.2.93,1.94,0,2.83-1.77,2.83-3.52v-.32c-.5.72-1.62,1.51-2.87,1.51-1.93,0-3.6-1.19-3.6-3.47,0-1.98,1.56-3.6,3.95-3.6,3.15,0,4.42,2.55,4.42,5.54s-1.62,5.53-4.72,5.53c-1.32,0-2.34-.47-3.07-1.19ZM85.1,551.94c-.1-1.16-.74-2.52-2.39-2.52-1.4,0-2.14,1.01-2.14,1.86,0,1.32,1.03,1.91,2.18,1.91.92,0,1.81-.48,2.34-1.25ZM88.88,557.63l.87-1.41c.56.58,1.19.93,2.2.93,1.94,0,2.83-1.77,2.83-3.52v-.32c-.5.72-1.62,1.51-2.87,1.51-1.93,0-3.6-1.19-3.6-3.47,0-1.98,1.56-3.6,3.95-3.6,3.15,0,4.42,2.55,4.42,5.54s-1.62,5.53-4.72,5.53c-1.32,0-2.34-.47-3.07-1.19ZM94.75,551.94c-.1-1.16-.74-2.52-2.39-2.52-1.4,0-2.14,1.01-2.14,1.86,0,1.32,1.03,1.91,2.18,1.91.92,0,1.81-.48,2.34-1.25ZM97.79,550.45c0-1.51,1.06-2.68,2.65-2.68s2.68,1.17,2.68,2.68-1.08,2.63-2.68,2.63-2.65-1.14-2.65-2.63ZM99.41,558.64l6.84-10.71h1.08l-6.86,10.71h-1.06ZM101.87,550.45c0-.96-.59-1.61-1.43-1.61s-1.41.64-1.41,1.61.59,1.57,1.41,1.57,1.43-.66,1.43-1.57ZM103.56,556.2c0-1.51,1.06-2.68,2.65-2.68s2.67,1.17,2.67,2.68-1.08,2.63-2.67,2.63-2.65-1.14-2.65-2.63ZM107.64,556.2c0-.96-.59-1.61-1.43-1.61s-1.41.64-1.41,1.61.58,1.57,1.41,1.57,1.43-.64,1.43-1.57Z"/>
          <path class="st15" d="M116.55,561.83c-1.51-1.85-2.43-4.51-2.43-7.1s.92-5.24,2.43-7.1l1.04.79c-1.06,1.99-1.64,3.79-1.64,6.31s.58,4.32,1.64,6.3l-1.04.8ZM118.69,558.64v-1.48c4.16-3.15,5.78-4.55,5.78-6.09,0-1.12-.96-1.64-1.94-1.64-1.25,0-2.22.51-2.89,1.28l-1.09-1.24c.95-1.14,2.46-1.72,3.95-1.72,2.07,0,3.89,1.17,3.89,3.31,0,1.98-1.81,3.74-4.69,5.91h4.75v1.65h-7.76ZM128.28,557.69c0-.61.51-1.12,1.12-1.12s1.12.51,1.12,1.12-.51,1.12-1.12,1.12-1.12-.51-1.12-1.12ZM131.76,557.1l1.01-1.24c.69.8,1.83,1.3,2.97,1.3,1.41,0,2.23-.64,2.23-1.64,0-1.06-.85-1.51-2.38-1.51-.45,0-1.08,0-1.24.02v-1.69c.19.02.82.02,1.24.02,1.25,0,2.2-.43,2.2-1.41s-.96-1.51-2.17-1.51c-1.09,0-1.99.42-2.76,1.19l-.96-1.17c.82-.96,2.12-1.69,3.9-1.69,2.31,0,3.87,1.09,3.87,2.89,0,1.43-1.22,2.26-2.33,2.46,1.04.1,2.49.95,2.49,2.6,0,1.81-1.56,3.12-4.03,3.12-1.91,0-3.32-.77-4.05-1.73ZM141.4,558.64v-1.48c4.16-3.15,5.78-4.55,5.78-6.09,0-1.12-.96-1.64-1.94-1.64-1.25,0-2.22.51-2.89,1.28l-1.09-1.24c.95-1.14,2.46-1.72,3.95-1.72,2.07,0,3.89,1.17,3.89,3.31,0,1.98-1.81,3.74-4.69,5.91h4.75v1.65h-7.76ZM160.54,558.64v-8.11l-3.29,8.11h-.8l-3.28-8.11v8.11h-1.88v-10.71h2.65l2.91,7.21,2.92-7.21h2.65v10.71h-1.88ZM165.49,554.74c0-2.52-.58-4.32-1.65-6.31l1.04-.79c1.53,1.86,2.44,4.51,2.44,7.1s-.92,5.25-2.44,7.1l-1.04-.8c1.08-1.98,1.65-3.77,1.65-6.3Z"/>
          <path class="st9" d="M56.97,561.65c-.42,0-.75-.34-.75-.75v-12.64l-1.96,2.11c-.28.31-.76.32-1.06.04-.31-.28-.32-.76-.04-1.06l3.26-3.51c.14-.15.34-.24.55-.24s.41.09.55.24l3.26,3.51c.28.3.27.78-.04,1.06-.3.28-.78.27-1.06-.04l-1.96-2.11v12.64c0,.42-.34.75-.75.75Z"/>
          <path class="st5" d="M52.51,649.48v-58.49h126.46l25.07-7.24h75.2l24.51,2.23v63.51H52.51Z"/>
          <path class="st3" d="M51.95,590.99h124.79l26.18-7.8h75.2"/>
          <path class="st3" d="M280.32,583.23l3.51.5"/>
          <path class="st3" d="M285.84,583.92l3.54.31"/>
          <path class="st3" d="M291.86,584.74l3.51.19"/>
          <path class="st3" d="M297.89,585.04l3.51.19"/>
        </g>
        <g>
          <rect class="st14" x="279.83" y="565.09" width="289.1" height="255.98" rx="9.5" ry="9.5"/>
          <rect class="st2" x="279.83" y="565.09" width="289.1" height="255.98" rx="9.5" ry="9.5"/>
          <path d="M296.45,596.71v-10.71h5.01c2.33,0,3.59,1.57,3.59,3.45s-1.28,3.42-3.59,3.42h-2.73v3.84h-2.28ZM302.73,589.43c0-.88-.67-1.48-1.58-1.48h-2.42v2.96h2.42c.9,0,1.58-.58,1.58-1.48ZM310.77,596.71v-.8c-.53.63-1.45,1-2.46,1-1.23,0-2.7-.84-2.7-2.57s1.47-2.47,2.7-2.47c1.03,0,1.95.32,2.46.95v-1.08c0-.79-.67-1.3-1.71-1.3-.83,0-1.61.31-2.26.92l-.77-1.37c.94-.84,2.17-1.22,3.39-1.22,1.77,0,3.38.71,3.38,2.94v5.01h-2.04ZM310.77,594.85v-.96c-.34-.45-.98-.67-1.64-.67-.8,0-1.47.43-1.47,1.17s.66,1.14,1.47,1.14c.65,0,1.29-.22,1.64-.67ZM314.86,597.91c.18.08.45.13.64.13.53,0,.88-.14,1.07-.56l.29-.66-3.15-7.87h2.19l2.03,5.4,2.02-5.4h2.2l-3.64,9.03c-.57,1.46-1.61,1.85-2.94,1.88-.24,0-.75-.05-1-.11l.3-1.83ZM332.68,596.71v-4.9c0-.72-.32-1.24-1.15-1.24-.72,0-1.32.48-1.61.9v5.24h-2.06v-4.9c0-.72-.32-1.24-1.15-1.24-.7,0-1.29.48-1.61.92v5.22h-2.04v-7.76h2.04v1.01c.32-.47,1.36-1.2,2.54-1.2s1.87.53,2.15,1.41c.45-.71,1.49-1.41,2.67-1.41,1.43,0,2.28.75,2.28,2.34v5.61h-2.06ZM336.24,592.82c0-2.25,1.66-4.06,4.02-4.06s3.88,1.73,3.88,4.27v.45h-5.76c.13.98.91,1.8,2.23,1.8.72,0,1.58-.29,2.08-.77l.89,1.32c-.78.72-1.99,1.08-3.19,1.08-2.36,0-4.15-1.59-4.15-4.08ZM340.26,590.38c-1.26,0-1.82.95-1.91,1.72h3.81c-.04-.74-.56-1.72-1.91-1.72ZM350.86,596.71v-4.69c0-1.08-.56-1.45-1.44-1.45-.8,0-1.43.45-1.77.92v5.22h-2.04v-7.76h2.04v1.01c.5-.59,1.45-1.2,2.72-1.2,1.7,0,2.52.96,2.52,2.47v5.48h-2.04ZM357.53,596.9c-1.44,0-2.21-.74-2.21-2.12v-4.05h-1.28v-1.78h1.28v-2.12h2.06v2.12h1.58v1.78h-1.58v3.5c0,.48.26.85.71.85.3,0,.59-.11.7-.22l.43,1.54c-.3.27-.85.5-1.7.5ZM364.5,596.71v-10.71h4.23c3.35,0,5.68,2.14,5.68,5.36s-2.33,5.35-5.68,5.35h-4.23ZM366.78,594.7h1.95c2.12,0,3.35-1.53,3.35-3.34s-1.15-3.36-3.35-3.36h-1.95v6.7ZM375.48,592.82c0-2.25,1.66-4.06,4.02-4.06s3.89,1.73,3.89,4.27v.45h-5.77c.13.98.91,1.8,2.24,1.8.72,0,1.57-.29,2.07-.77l.9,1.32c-.79.72-2,1.08-3.2,1.08-2.36,0-4.15-1.59-4.15-4.08ZM379.5,590.38c-1.26,0-1.81.95-1.91,1.72h3.82c-.05-.74-.56-1.72-1.92-1.72ZM384.86,596.71v-10.71h2.05v10.71h-2.05ZM393.58,596.71v-.8c-.53.63-1.45,1-2.46,1-1.23,0-2.7-.84-2.7-2.57s1.47-2.47,2.7-2.47c1.03,0,1.95.32,2.46.95v-1.08c0-.79-.67-1.3-1.71-1.3-.83,0-1.61.31-2.26.92l-.77-1.37c.94-.84,2.17-1.22,3.39-1.22,1.77,0,3.38.71,3.38,2.94v5.01h-2.04ZM393.58,594.85v-.96c-.34-.45-.98-.67-1.64-.67-.8,0-1.47.43-1.47,1.17s.66,1.14,1.47,1.14c.65,0,1.29-.22,1.64-.67ZM397.68,597.91c.18.08.45.13.64.13.53,0,.88-.14,1.07-.56l.29-.66-3.15-7.87h2.19l2.03,5.4,2.02-5.4h2.2l-3.64,9.03c-.57,1.46-1.61,1.85-2.94,1.88-.24,0-.75-.05-1-.11l.3-1.83Z"/>
          <path class="st15" d="M296.4,615.78v-8.7h2.98c2.7,0,4.46,1.89,4.46,4.36s-1.76,4.35-4.46,4.35h-2.98ZM297.49,614.82h1.9c2.11,0,3.34-1.51,3.34-3.38s-1.19-3.39-3.34-3.39h-1.9v6.77ZM309.44,615.78v-.72c-.52.57-1.23.87-2.09.87-1.06,0-2.2-.72-2.2-2.09s1.13-2.07,2.2-2.07c.86,0,1.59.27,2.09.86v-1.14c0-.85-.67-1.33-1.59-1.33-.76,0-1.38.27-1.94.87l-.45-.68c.67-.7,1.49-1.04,2.52-1.04,1.32,0,2.44.6,2.44,2.13v4.33h-.98ZM309.44,614.45v-1.19c-.37-.52-1.04-.78-1.74-.78-.91,0-1.55.57-1.55,1.38s.63,1.37,1.55,1.37c.69,0,1.37-.26,1.74-.78ZM312.19,617.36c.14.07.38.1.53.1.43,0,.72-.14.94-.67l.41-.95-2.63-6.37h1.05l2.1,5.17,2.09-5.17h1.07l-3.16,7.58c-.37.91-1.01,1.27-1.85,1.28-.21,0-.54-.04-.72-.09l.16-.89ZM318.24,614.95l.51-.7c.41.48,1.21.9,2.07.9.97,0,1.5-.43,1.5-1.04,0-.69-.77-.91-1.63-1.12-1.06-.25-2.28-.54-2.28-1.84,0-.98.84-1.81,2.35-1.81,1.07,0,1.83.4,2.34.91l-.46.68c-.38-.46-1.06-.8-1.88-.8-.86,0-1.4.39-1.4.95,0,.61.71.81,1.54,1,1.09.25,2.37.56,2.37,1.96,0,1.06-.85,1.91-2.48,1.91-1.03,0-1.91-.31-2.55-.99ZM328.48,615.78v-5.44h-1.04v-.86h1.04v-.48c0-1.3.73-2.05,1.83-2.05.37,0,.71.07.95.22l-.24.73c-.16-.09-.34-.14-.56-.14-.64,0-.99.44-.99,1.24v.48h1.27v.86h-1.27v5.44h-.98ZM331.91,615.78v-6.3h.98v1.02c.5-.67,1.23-1.15,2.1-1.15v1c-.12-.03-.23-.04-.39-.04-.6,0-1.43.5-1.71,1v4.46h-.98ZM338.97,615.94c-1.92,0-3.12-1.49-3.12-3.31s1.2-3.3,3.12-3.3,3.11,1.47,3.11,3.3-1.19,3.31-3.11,3.31ZM338.97,615.07c1.35,0,2.09-1.15,2.09-2.44s-.74-2.43-2.09-2.43-2.11,1.15-2.11,2.43.76,2.44,2.11,2.44ZM351.29,615.78v-4.28c0-.8-.35-1.3-1.16-1.3-.65,0-1.34.47-1.67.97v4.62h-.97v-4.28c0-.8-.34-1.3-1.16-1.3-.64,0-1.31.47-1.66.98v4.61h-.98v-6.3h.98v.91c.26-.4,1.1-1.07,2.04-1.07s1.51.52,1.7,1.17c.35-.57,1.19-1.17,2.11-1.17,1.15,0,1.77.64,1.77,1.91v4.55h-.98ZM357.22,612.62c0-1.87,1.26-3.3,3.14-3.3,1.15,0,1.83.47,2.31,1.1l-.65.6c-.41-.57-.95-.82-1.61-.82-1.34,0-2.18,1.03-2.18,2.43s.84,2.44,2.18,2.44c.65,0,1.19-.26,1.61-.82l.65.6c-.48.63-1.15,1.1-2.31,1.1-1.88,0-3.14-1.44-3.14-3.31ZM364.05,615.78v-8.7h.97v8.7h-.97ZM370.93,615.78v-.72c-.52.57-1.24.87-2.09.87-1.07,0-2.21-.72-2.21-2.09s1.13-2.07,2.21-2.07c.85,0,1.58.27,2.09.86v-1.14c0-.85-.68-1.33-1.6-1.33-.75,0-1.38.27-1.93.87l-.46-.68c.68-.7,1.49-1.04,2.52-1.04,1.34,0,2.44.6,2.44,2.13v4.33h-.97ZM370.93,614.45v-1.19c-.38-.52-1.04-.78-1.74-.78-.91,0-1.56.57-1.56,1.38s.64,1.37,1.56,1.37c.69,0,1.36-.26,1.74-.78ZM374.35,608.42c-.35,0-.65-.3-.65-.67s.3-.65.65-.65.66.29.66.65-.3.67-.66.67ZM373.87,615.78v-6.3h.97v6.3h-.97ZM384.4,615.78v-4.28c0-.8-.35-1.3-1.15-1.3-.65,0-1.35.47-1.68.97v4.62h-.97v-4.28c0-.8-.34-1.3-1.16-1.3-.64,0-1.31.47-1.66.98v4.61h-.97v-6.3h.97v.91c.26-.4,1.11-1.07,2.04-1.07s1.52.52,1.7,1.17c.35-.57,1.19-1.17,2.11-1.17,1.15,0,1.77.64,1.77,1.91v4.55h-.98ZM390.33,612.62c0-1.87,1.26-3.3,3.14-3.3,1.15,0,1.83.47,2.32,1.1l-.65.6c-.42-.57-.95-.82-1.61-.82-1.35,0-2.18,1.03-2.18,2.43s.83,2.44,2.18,2.44c.65,0,1.18-.26,1.61-.82l.65.6c-.49.63-1.16,1.1-2.32,1.1-1.88,0-3.14-1.44-3.14-3.31ZM397.16,615.78v-6.3h.98v1.02c.5-.67,1.23-1.15,2.1-1.15v1c-.12-.03-.23-.04-.39-.04-.6,0-1.43.5-1.71,1v4.46h-.98ZM401.1,612.62c0-1.83,1.3-3.3,3.1-3.3,1.91,0,3.03,1.49,3.03,3.38v.25h-5.1c.07,1.19.91,2.18,2.27,2.18.71,0,1.45-.29,1.95-.8l.46.64c-.62.63-1.48.97-2.5.97-1.87,0-3.21-1.34-3.21-3.31ZM404.19,610.13c-1.35,0-2.01,1.14-2.06,2.1h4.14c-.02-.94-.64-2.1-2.08-2.1ZM412.76,615.78v-.72c-.52.57-1.23.87-2.09.87-1.06,0-2.2-.72-2.2-2.09s1.13-2.07,2.2-2.07c.86,0,1.59.27,2.09.86v-1.14c0-.85-.67-1.33-1.59-1.33-.76,0-1.38.27-1.94.87l-.45-.68c.68-.7,1.49-1.04,2.52-1.04,1.33,0,2.44.6,2.44,2.13v4.33h-.98ZM412.76,614.45v-1.19c-.37-.52-1.04-.78-1.73-.78-.91,0-1.56.57-1.56,1.38s.64,1.37,1.56,1.37c.68,0,1.36-.26,1.73-.78ZM417.29,615.94c-.92,0-1.4-.54-1.4-1.47v-4.12h-1.04v-.86h1.04v-1.72h.97v1.72h1.28v.86h-1.28v3.91c0,.47.21.81.64.81.27,0,.53-.12.66-.26l.29.73c-.25.23-.6.4-1.17.4ZM420.02,608.42c-.35,0-.65-.3-.65-.67s.3-.65.65-.65.66.29.66.65-.3.67-.66.67ZM419.54,615.78v-6.3h.97v6.3h-.97ZM425.22,615.94c-1.92,0-3.12-1.49-3.12-3.31s1.2-3.3,3.12-3.3,3.12,1.47,3.12,3.3-1.2,3.31-3.12,3.31ZM425.22,615.07c1.35,0,2.09-1.15,2.09-2.44s-.74-2.43-2.09-2.43-2.1,1.15-2.1,2.43.75,2.44,2.1,2.44ZM434.19,615.78v-4.12c0-1.11-.56-1.46-1.41-1.46-.77,0-1.51.47-1.87.98v4.61h-.98v-6.3h.98v.91c.44-.52,1.31-1.07,2.25-1.07,1.32,0,2.01.67,2.01,2.04v4.42h-.98ZM442.08,615.94c-.92,0-1.4-.54-1.4-1.47v-4.12h-1.04v-.86h1.04v-1.72h.98v1.72h1.27v.86h-1.27v3.91c0,.47.2.81.63.81.28,0,.54-.12.67-.26l.28.73c-.24.23-.6.4-1.17.4ZM447.08,615.94c-1.92,0-3.12-1.49-3.12-3.31s1.2-3.3,3.12-3.3,3.12,1.47,3.12,3.3-1.2,3.31-3.12,3.31ZM447.08,615.07c1.35,0,2.09-1.15,2.09-2.44s-.74-2.43-2.09-2.43-2.1,1.15-2.1,2.43.75,2.44,2.1,2.44ZM456.13,618.18h-.97v-8.7h.97v.94c.46-.64,1.24-1.1,2.13-1.1,1.66,0,2.81,1.25,2.81,3.3s-1.15,3.31-2.81,3.31c-.86,0-1.62-.4-2.13-1.11v3.35ZM460.04,612.62c0-1.4-.75-2.43-2.02-2.43-.77,0-1.55.46-1.89,1v2.84c.34.55,1.11,1.02,1.89,1.02,1.26,0,2.02-1.04,2.02-2.44ZM466.59,615.78v-.72c-.52.57-1.24.87-2.09.87-1.07,0-2.21-.72-2.21-2.09s1.13-2.07,2.21-2.07c.86,0,1.58.27,2.09.86v-1.14c0-.85-.68-1.33-1.6-1.33-.75,0-1.37.27-1.93.87l-.46-.68c.68-.7,1.5-1.04,2.52-1.04,1.34,0,2.44.6,2.44,2.13v4.33h-.97ZM466.59,614.45v-1.19c-.38-.52-1.04-.78-1.74-.78-.91,0-1.56.57-1.56,1.38s.64,1.37,1.56,1.37c.69,0,1.36-.26,1.74-.78ZM469.33,617.36c.15.07.38.1.54.1.43,0,.71-.14.93-.67l.42-.95-2.64-6.37h1.06l2.1,5.17,2.09-5.17h1.06l-3.15,7.58c-.38.91-1.02,1.27-1.86,1.28-.21,0-.53-.04-.71-.09l.15-.89ZM483.54,615.78v-4.28c0-.8-.35-1.3-1.16-1.3-.65,0-1.35.47-1.67.97v4.62h-.98v-4.28c0-.8-.33-1.3-1.15-1.3-.64,0-1.32.47-1.66.98v4.61h-.98v-6.3h.98v.91c.26-.4,1.1-1.07,2.03-1.07.97,0,1.52.52,1.7,1.17.36-.57,1.2-1.17,2.12-1.17,1.14,0,1.77.64,1.77,1.91v4.55h-.98ZM486.11,612.62c0-1.83,1.31-3.3,3.1-3.3,1.91,0,3.03,1.49,3.03,3.38v.25h-5.11c.08,1.19.91,2.18,2.28,2.18.71,0,1.45-.29,1.94-.8l.47.64c-.62.63-1.48.97-2.51.97-1.86,0-3.2-1.34-3.2-3.31ZM489.2,610.13c-1.35,0-2.01,1.14-2.07,2.1h4.14c-.01-.94-.63-2.1-2.07-2.1ZM498.07,615.78v-4.12c0-1.11-.55-1.46-1.41-1.46-.77,0-1.5.47-1.87.98v4.61h-.97v-6.3h.97v.91c.44-.52,1.3-1.07,2.25-1.07,1.31,0,2.01.67,2.01,2.04v4.42h-.98ZM502.6,615.94c-.92,0-1.4-.54-1.4-1.47v-4.12h-1.04v-.86h1.04v-1.72h.98v1.72h1.27v.86h-1.27v3.91c0,.47.2.81.63.81.28,0,.54-.12.67-.26l.28.73c-.24.23-.6.4-1.17.4Z"/>
          <path d="M296.99,660.96v-2.96c8.32-6.3,11.56-9.09,11.56-12.17,0-2.25-1.93-3.28-3.88-3.28-2.51,0-4.44,1.03-5.78,2.57l-2.19-2.47c1.9-2.28,4.92-3.44,7.9-3.44,4.15,0,7.78,2.34,7.78,6.62,0,3.95-3.63,7.48-9.39,11.82h9.52v3.31h-15.52ZM325.6,660.96v-4.85h-10.21v-3.02l8.8-13.56h5.17v13.27h2.86v3.31h-2.86v4.85h-3.76ZM325.6,642.9l-6.51,9.89h6.51v-9.89ZM334.8,659.06c0-1.22,1.02-2.25,2.25-2.25s2.25,1.03,2.25,2.25-1.03,2.25-2.25,2.25-2.25-1.03-2.25-2.25ZM342.8,658.03l2.15-2.57c1.45,1.64,3.37,2.54,5.78,2.54,2.7,0,4.41-1.67,4.41-3.76,0-2.31-1.68-3.82-4.31-3.82-1.83,0-3.34.58-4.69,1.86l-2.67-.77v-11.98h14.04v3.31h-10.28v6.2c1.02-1.03,2.79-1.86,4.85-1.86,3.59,0,6.84,2.54,6.84,6.91s-3.37,7.26-8.15,7.26c-3.69,0-6.23-1.25-7.97-3.31Z"/>
          <path class="st13" d="M315.85,710.61l1.01-1.24c.69.8,1.84,1.3,2.97,1.3,1.42,0,2.24-.64,2.24-1.64,0-1.06-.85-1.51-2.38-1.51-.45,0-1.07,0-1.23.02v-1.69c.19.02.81.02,1.23.02,1.25,0,2.2-.43,2.2-1.41s-.96-1.51-2.17-1.51c-1.09,0-1.99.42-2.76,1.19l-.96-1.17c.81-.96,2.12-1.69,3.9-1.69,2.31,0,3.86,1.09,3.86,2.89,0,1.43-1.21,2.26-2.33,2.46,1.04.1,2.49.95,2.49,2.6,0,1.81-1.56,3.12-4.03,3.12-1.92,0-3.33-.77-4.06-1.73ZM325.52,711.2c0-.61.51-1.12,1.12-1.12s1.12.51,1.12,1.12-.51,1.12-1.12,1.12-1.12-.51-1.12-1.12ZM329.01,710.61l1.01-1.24c.69.8,1.84,1.3,2.97,1.3,1.42,0,2.24-.64,2.24-1.64,0-1.06-.85-1.51-2.38-1.51-.45,0-1.07,0-1.23.02v-1.69c.19.02.81.02,1.23.02,1.25,0,2.2-.43,2.2-1.41s-.96-1.51-2.17-1.51c-1.09,0-1.99.42-2.76,1.19l-.96-1.17c.81-.96,2.12-1.69,3.9-1.69,2.31,0,3.86,1.09,3.86,2.89,0,1.43-1.21,2.26-2.33,2.46,1.04.1,2.49.95,2.49,2.6,0,1.81-1.56,3.12-4.03,3.12-1.92,0-3.33-.77-4.06-1.73ZM338.5,706.82c0-3.1,1.63-5.54,4.73-5.54,1.32,0,2.36.48,3.08,1.19l-.88,1.43c-.56-.59-1.17-.95-2.2-.95-1.79,0-2.83,1.65-2.83,3.53,0,.11,0,.21.02.31.48-.72,1.61-1.49,2.87-1.49,1.93,0,3.58,1.17,3.58,3.45,0,1.99-1.56,3.6-3.96,3.6-3.14,0-4.42-2.55-4.42-5.53ZM344.98,708.81c0-1.32-1.02-1.91-2.2-1.91-.91,0-1.8.5-2.35,1.27.11,1.16.74,2.51,2.4,2.51,1.41,0,2.15-1,2.15-1.86ZM347.94,703.96c0-1.51,1.06-2.68,2.65-2.68s2.69,1.17,2.69,2.68-1.08,2.63-2.69,2.63-2.65-1.14-2.65-2.63ZM349.56,712.15l6.85-10.71h1.07l-6.86,10.71h-1.06ZM352.02,703.96c0-.96-.59-1.61-1.44-1.61s-1.41.64-1.41,1.61.59,1.57,1.41,1.57,1.44-.66,1.44-1.57ZM353.71,709.71c0-1.51,1.05-2.68,2.65-2.68s2.66,1.17,2.66,2.68-1.07,2.63-2.66,2.63-2.65-1.14-2.65-2.63ZM357.79,709.71c0-.96-.59-1.61-1.43-1.61s-1.42.64-1.42,1.61.58,1.57,1.42,1.57,1.43-.64,1.43-1.57Z"/>
          <path class="st15" d="M366.72,715.35c-1.52-1.85-2.43-4.51-2.43-7.1s.91-5.24,2.43-7.1l1.04.79c-1.06,1.99-1.65,3.79-1.65,6.31s.58,4.32,1.65,6.3l-1.04.8ZM368.86,712.15v-1.48c4.16-3.15,5.78-4.55,5.78-6.09,0-1.12-.96-1.64-1.95-1.64-1.24,0-2.21.51-2.89,1.28l-1.08-1.24c.94-1.14,2.45-1.72,3.94-1.72,2.08,0,3.88,1.17,3.88,3.31,0,1.98-1.81,3.74-4.69,5.91h4.76v1.65h-7.76ZM378.51,710.69l1.07-1.28c.72.82,1.69,1.27,2.89,1.27,1.36,0,2.21-.84,2.21-1.88,0-1.16-.84-1.91-2.16-1.91-.91,0-1.67.29-2.34.93l-1.34-.39v-5.99h7.02v1.65h-5.14v3.1c.51-.51,1.4-.93,2.43-.93,1.8,0,3.41,1.27,3.41,3.45s-1.69,3.63-4.08,3.63c-1.85,0-3.11-.63-3.99-1.65ZM388.07,711.2c0-.61.51-1.12,1.12-1.12s1.12.51,1.12,1.12-.51,1.12-1.12,1.12-1.12-.51-1.12-1.12ZM396.73,712.15v-2.43h-5.11v-1.51l4.4-6.78h2.59v6.63h1.43v1.65h-1.43v2.43h-1.88ZM396.73,703.12l-3.26,4.95h3.26v-4.95ZM402.42,708.25c0-2.52-.57-4.32-1.65-6.31l1.04-.79c1.53,1.86,2.44,4.51,2.44,7.1s-.91,5.25-2.44,7.1l-1.04-.8c1.07-1.98,1.65-3.77,1.65-6.3Z"/>
          <path class="st9" d="M304.42,715.16c-.41,0-.75-.34-.75-.75v-12.64l-1.96,2.11c-.28.31-.76.32-1.06.04-.3-.28-.32-.76-.04-1.06l3.26-3.51c.14-.15.34-.24.55-.24s.41.09.55.24l3.26,3.51c.28.3.26.78-.04,1.06-.3.28-.78.27-1.06-.04l-1.96-2.11v12.64c0,.42-.34.75-.75.75Z"/>
          <path class="st16" d="M299.4,803.5v-67.67h104.53l106.73,18.15h36.85v49.51h-248.11Z"/>
          <path class="st0" d="M299.96,736.38h105.62l106.17,18.15h35.21"/>
          <circle class="st8" cx="511.2" cy="753.44" r="4.95"/>
          <circle class="st8" cx="546.42" cy="753.44" r="4.95"/>
          <rect class="st12" x="511.75" y="733.08" width="35.21" height="12.1"/>
        </g>
      </g>
    </g>
  </g>
</svg>